<?xml version="1.0" encoding="UTF-8" standalone="no"?>
<!-- Created with Inkscape (http://www.inkscape.org/) -->

<svg
   xmlns:dc="http://purl.org/dc/elements/1.1/"
   xmlns:cc="http://creativecommons.org/ns#"
   xmlns:rdf="http://www.w3.org/1999/02/22-rdf-syntax-ns#"
   xmlns:svg="http://www.w3.org/2000/svg"
   xmlns="http://www.w3.org/2000/svg"
   xmlns:sodipodi="http://sodipodi.sourceforge.net/DTD/sodipodi-0.dtd"
   xmlns:inkscape="http://www.inkscape.org/namespaces/inkscape"
   width="500"
   height="439.42462"
   id="svg2"
   version="1.1"
   inkscape:version="0.48.5 r10040"
   sodipodi:docname="New document 1">
  <defs
     id="defs4">
    <filter
       inkscape:collect="always"
       id="filter3993">
      <feGaussianBlur
         inkscape:collect="always"
         stdDeviation="3.5330383"
         id="feGaussianBlur3995" />
    </filter>
    <filter
       inkscape:collect="always"
       id="filter4007">
      <feGaussianBlur
         inkscape:collect="always"
         stdDeviation="2.9669088"
         id="feGaussianBlur4009" />
    </filter>
  </defs>
  <sodipodi:namedview
     id="base"
     pagecolor="#ffffff"
     bordercolor="#666666"
     borderopacity="1.0"
     inkscape:pageopacity="0.0"
     inkscape:pageshadow="2"
     inkscape:zoom="0.70710678"
     inkscape:cx="86.213488"
     inkscape:cy="226.75524"
     inkscape:document-units="px"
     inkscape:current-layer="layer1"
     showgrid="false"
     showguides="false"
     inkscape:guide-bbox="true"
     inkscape:object-nodes="true"
     inkscape:snap-global="true"
     inkscape:snap-smooth-nodes="true"
     fit-margin-top="0"
     fit-margin-left="0"
     fit-margin-right="0"
     fit-margin-bottom="0"
     inkscape:window-width="1366"
     inkscape:window-height="705"
     inkscape:window-x="-8"
     inkscape:window-y="-8"
     inkscape:window-maximized="1">
    <sodipodi:guide
       orientation="1,0"
       position="0,306.93342"
       id="guide2911" />
    <sodipodi:guide
       orientation="0,1"
       position="0,439.42462"
       id="guide2913" />
    <sodipodi:guide
       orientation="1,0"
       position="500,361.42462"
       id="guide2917" />
    <sodipodi:guide
       orientation="1,0"
       position="53.228901,401.56338"
       id="guide3737" />
  </sodipodi:namedview>
  <metadata
     id="metadata7">
    <rdf:RDF>
      <cc:Work
         rdf:about="">
        <dc:format>image/svg+xml</dc:format>
        <dc:type
           rdf:resource="http://purl.org/dc/dcmitype/StillImage" />
        <dc:title></dc:title>
      </cc:Work>
    </rdf:RDF>
  </metadata>
  <g
     inkscape:label="Layer 1"
     inkscape:groupmode="layer"
     id="layer1"
     transform="translate(0,-252.36218)">
    <rect
       style="fill:#dddddd;fill-opacity:1;stroke:none"
       id="rect3691"
       width="500"
       height="439.42462"
       x="6.0802058e-015"
       y="252.36218" />
    <path
       inkscape:connector-curvature="0"
       id="path3997"
       d="m 2,254.36218 0,51.01666 0,10.39465 0,12.92422 c 0,10.55161 12.488,19.04623 28,19.04623 l 443.99999,0 c 15.512,0 28.00001,-8.49462 28.00001,-19.04623 l 0,-12.92422 0,-10.39465 0,-51.01666 -500,0 z"
       style="fill:#000000;fill-opacity:1;stroke:none;filter:url(#filter4007)" />
    <path
       style="fill:#2a7fff;fill-opacity:1;stroke:none"
       d="m 0,252.36218 0,51.01666 0,10.39465 0,12.92422 c 0,10.55161 12.488,19.04623 28,19.04623 l 443.99999,0 c 15.512,0 28.00001,-8.49462 28.00001,-19.04623 l 0,-12.92422 0,-10.39465 0,-51.01666 -500,0 z"
       id="rect2915"
       inkscape:connector-curvature="0" />
    <path
       style="opacity:0.52147241;fill:#002255;fill-opacity:1;stroke:none"
       d="m 41.046878,264.41244 c -5.48432,0 -9.90625,4.42192 -9.90625,9.90625 l 0,49.46875 c 0,5.48432 4.42193,9.90625 9.90625,9.90625 l 205.062492,0 107.46875,0 80.625,0 c 19.19512,0 34.65625,-15.42989 34.65625,-34.625 0,-19.19512 -15.46113,-34.65625 -34.65625,-34.65625 l -80.625,0 -107.46875,0 -205.062492,0 z"
       id="rect3697"
       inkscape:connector-curvature="0" />
    <path
       sodipodi:type="arc"
       style="fill:#ffffff;fill-opacity:1;stroke:none"
       id="path3706"
       sodipodi:cx="162.28101"
       sodipodi:cy="189.4133"
       sodipodi:rx="33.58757"
       sodipodi:ry="33.58757"
       d="m 195.86858,189.4133 c 0,18.5499 -15.03767,33.58757 -33.58757,33.58757 -18.54991,0 -33.58757,-15.03767 -33.58757,-33.58757 0,-18.5499 15.03766,-33.58757 33.58757,-33.58757 18.5499,0 33.58757,15.03767 33.58757,33.58757 z"
       transform="matrix(1.0313488,0,0,1.0313488,266.85055,103.70189)" />
    <path
       style="fill:#2a7fff;fill-opacity:1;stroke:none"
       d="m 432.32824,279.38119 0,17.78125 -17.78125,0 0,3.78125 17.78125,0 0,17.78125 3.78125,0 0,-17.78125 17.78125,0 0,-3.78125 -17.78125,0 0,-17.78125 -3.78125,0 z"
       id="rect3708"
       inkscape:connector-curvature="0" />
    <g
       style="font-size:20px;font-style:normal;font-variant:normal;font-weight:bold;font-stretch:normal;text-align:start;line-height:125%;letter-spacing:2px;word-spacing:0px;writing-mode:lr-tb;text-anchor:start;fill:#ffffff;fill-opacity:1;stroke:none;font-family:Lato;-inkscape-font-specification:Lato Bold"
       id="text3717">
      <path
         d="m 66.068867,297.45303 c -1.5e-5,1.05999 -0.176711,2.03339 -0.530091,2.92023 -0.353407,0.88684 -0.850131,1.65019 -1.490173,2.29004 -0.640067,0.63985 -1.410025,1.13648 -2.309875,1.48987 -0.899871,0.35339 -1.899931,0.53009 -3.000184,0.53009 l -5.509643,0 0,-14.45984 5.509643,0 c 1.100253,1e-5 2.100313,0.17834 3.000184,0.53497 0.89985,0.35666 1.669808,0.85329 2.309875,1.48987 0.640042,0.63661 1.136766,1.39823 1.490173,2.28485 0.35338,0.88665 0.530076,1.85995 0.530091,2.91992 z m -2.76001,0 c -1.2e-5,-0.79304 -0.104992,-1.50461 -0.314941,-2.1347 -0.209973,-0.63008 -0.513317,-1.16342 -0.910035,-1.60004 -0.396738,-0.43659 -0.876779,-0.77157 -1.440124,-1.00494 -0.563363,-0.23335 -1.198433,-0.35003 -1.905213,-0.35004 l -2.809448,0 0,10.18006 2.809448,0 c 0.70678,0 1.34185,-0.11668 1.905213,-0.35004 0.563345,-0.23336 1.043386,-0.56834 1.440124,-1.00494 0.396718,-0.43661 0.700062,-0.96995 0.910035,-1.60004 0.209949,-0.63008 0.314929,-1.34185 0.314941,-2.13532 z"
         id="path3746"
         inkscape:connector-curvature="0" />
      <path
         d="m 74.573994,294.26334 c 0.760084,10e-6 1.451815,0.1233 2.075195,0.36987 0.623364,0.24659 1.156709,0.59663 1.600037,1.05011 0.443308,0.4535 0.784902,1.00688 1.02478,1.66016 0.239857,0.65328 0.359791,1.38316 0.359802,2.18963 -1.1e-5,0.8134 -0.119945,1.54674 -0.359802,2.20001 -0.239878,0.65329 -0.581472,1.20993 -1.02478,1.66993 -0.443328,0.46 -0.976673,0.81339 -1.600037,1.06018 -0.62338,0.24678 -1.315111,0.37017 -2.075195,0.37017 -0.766607,0 -1.463221,-0.12339 -2.089844,-0.37017 -0.626631,-0.24679 -1.161603,-0.60018 -1.60492,-1.06018 -0.44332,-0.46 -0.786642,-1.01664 -1.029968,-1.66993 -0.243327,-0.65327 -0.364991,-1.38661 -0.36499,-2.20001 -10e-7,-0.80647 0.121663,-1.53635 0.36499,-2.18963 0.243326,-0.65328 0.586648,-1.20666 1.029968,-1.66016 0.443317,-0.45348 0.978289,-0.80352 1.60492,-1.05011 0.626623,-0.24657 1.323237,-0.36986 2.089844,-0.36987 z m 0,8.67004 c 0.853265,0 1.484978,-0.28666 1.895141,-0.85999 0.410148,-0.57332 0.615226,-1.41336 0.615235,-2.52014 -9e-6,-1.10676 -0.205087,-1.95016 -0.615235,-2.53021 -0.410163,-0.58003 -1.041876,-0.87005 -1.895141,-0.87006 -0.866704,10e-6 -1.508387,0.29176 -1.925049,0.87525 -0.41667,0.5835 -0.625003,1.42518 -0.625,2.52502 -3e-6,1.09986 0.20833,1.93818 0.625,2.51496 0.416662,0.57678 1.058345,0.86517 1.925049,0.86517 z"
         id="path3748"
         inkscape:connector-curvature="0" />
      <path
         d="m 89.958393,297.04349 c -0.279955,-0.34016 -0.584927,-0.58024 -0.914917,-0.72022 -0.330003,-0.13996 -0.685024,-0.20995 -1.065063,-0.20996 -0.373134,10e-6 -0.709742,0.07 -1.009827,0.20996 -0.300094,0.13998 -0.556848,0.35167 -0.770264,0.63507 -0.213423,0.28342 -0.376794,0.64342 -0.490112,1.08002 -0.113325,0.43661 -0.169986,0.95154 -0.169983,1.5448 -3e-6,0.60018 0.04842,1.10861 0.145264,1.52527 0.09684,0.41667 0.235185,0.75663 0.415039,1.0199 0.179846,0.26326 0.399776,0.45318 0.65979,0.56976 0.260005,0.11658 0.550125,0.17487 0.870361,0.17487 0.513097,0 0.949701,-0.10661 1.309815,-0.31983 0.3601,-0.21321 0.700066,-0.51656 1.019897,-0.91003 z m 2.470093,-7.22046 0,14.86023 -1.51001,0 c -0.32675,0 -0.533455,-0.14994 -0.620117,-0.44983 l -0.209961,-0.98999 c -0.413419,0.47323 -0.888374,0.85653 -1.424866,1.1499 -0.536505,0.29338 -1.161606,0.44006 -1.875305,0.44006 -0.5599,0 -1.073205,-0.11667 -1.539917,-0.35003 -0.466718,-0.23336 -0.868329,-0.5717 -1.204834,-1.01502 -0.336508,-0.44331 -0.596518,-0.99161 -0.780029,-1.64489 -0.183513,-0.65328 -0.275269,-1.40004 -0.275269,-2.2403 0,-0.76008 0.103352,-1.46677 0.310059,-2.12006 0.206704,-0.65327 0.503437,-1.21988 0.890198,-1.69982 0.386757,-0.47994 0.850115,-0.85489 1.390075,-1.12488 0.539954,-0.26997 1.146643,-0.40496 1.820069,-0.40497 0.573318,10e-6 1.063328,0.0899 1.470031,0.26977 0.406691,0.17986 0.769952,0.42319 1.089783,0.72998 l 0,-5.41015 z"
         id="path3750"
         inkscape:connector-curvature="0" />
      <path
         d="m 102.30568,300.30338 c -0.7133,0.0334 -1.31328,0.095 -1.79992,0.18493 -0.48666,0.0899 -0.876676,0.20488 -1.170048,0.34485 -0.293379,0.13998 -0.503441,0.30335 -0.630188,0.49011 -0.126752,0.18677 -0.190127,0.39002 -0.190124,0.60974 -3e-6,0.43336 0.128374,0.74341 0.385132,0.93018 0.256751,0.18677 0.591834,0.28015 1.005249,0.28015 0.506589,0 0.944919,-0.0917 1.314999,-0.27496 0.37007,-0.18331 0.73171,-0.46173 1.0849,-0.83527 z m -5.659787,-4.45008 c 1.180011,-1.0799 2.599891,-1.61986 4.259647,-1.61987 0.60017,10e-6 1.13687,0.0983 1.6101,0.2948 0.47322,0.19654 0.87321,0.46988 1.19996,0.82001 0.32673,0.35014 0.57514,0.76854 0.74523,1.25518 0.17008,0.48667 0.25512,1.01991 0.25513,1.59974 l 0,6.4801 -1.11999,0 c -0.23357,0 -0.41373,-0.035 -0.54047,-0.10498 -0.12676,-0.07 -0.22675,-0.21159 -0.29999,-0.42481 l -0.21972,-0.74035 c -0.26002,0.23356 -0.51342,0.43864 -0.7602,0.61523 -0.24679,0.1766 -0.50344,0.32491 -0.76996,0.44495 -0.26652,0.12003 -0.55145,0.21169 -0.85479,0.27496 -0.303352,0.0633 -0.638333,0.0949 -1.004947,0.0949 -0.433353,0 -0.833438,-0.0583 -1.200256,-0.17487 -0.366823,-0.11657 -0.683494,-0.29154 -0.950012,-0.5249 -0.266522,-0.23335 -0.473126,-0.52337 -0.619812,-0.87005 -0.146689,-0.34668 -0.220033,-0.75012 -0.220032,-1.21033 -1e-6,-0.26001 0.04333,-0.51829 0.130005,-0.77484 0.08667,-0.25655 0.22827,-0.5015 0.424804,-0.73487 0.196532,-0.23335 0.451557,-0.45338 0.765076,-0.66009 0.313515,-0.2067 0.698545,-0.38676 1.15509,-0.54016 0.45654,-0.1534 0.988156,-0.27842 1.594854,-0.37506 0.60668,-0.0966 1.30004,-0.15492 2.08007,-0.17487 l 0,-0.59997 c 0,-0.68644 -0.14669,-1.19466 -0.44006,-1.52466 -0.29338,-0.32999 -0.71676,-0.49499 -1.27014,-0.495 -0.39999,10e-6 -0.731614,0.0466 -0.994875,0.13977 -0.263269,0.0932 -0.494897,0.19817 -0.694885,0.31494 -0.199995,0.11679 -0.381676,0.22187 -0.545044,0.31525 -0.163373,0.0934 -0.344953,0.14008 -0.544739,0.14008 -0.173342,0 -0.320029,-0.0451 -0.440063,-0.1352 -0.120038,-0.0901 -0.216677,-0.1952 -0.289917,-0.31524 z"
         id="path3752"
         inkscape:connector-curvature="0" />
      <path
         d="m 111.60183,294.42325 0,10.60974 c -1e-5,0.44678 -0.0583,0.8668 -0.17487,1.26007 -0.11658,0.39327 -0.30325,0.73832 -0.56,1.03516 -0.25675,0.29683 -0.59347,0.53019 -1.01013,0.70007 -0.41667,0.16988 -0.92489,0.25482 -1.52466,0.25482 -0.23356,0 -0.45034,-0.015 -0.65033,-0.0449 -0.19999,-0.0299 -0.40659,-0.0782 -0.61981,-0.14496 l 0.0897,-1.32995 c 0.0199,-0.13347 0.0732,-0.21851 0.15991,-0.25513 0.0867,-0.0366 0.2535,-0.0549 0.50049,-0.0549 0.24658,0 0.45482,-0.025 0.6247,-0.0751 0.16988,-0.05 0.30487,-0.13 0.40497,-0.23986 0.10009,-0.10987 0.17181,-0.25483 0.21514,-0.43488 0.0433,-0.18005 0.065,-0.40354 0.065,-0.67047 l 0,-10.60974 z m 0.33996,-2.99011 c 0,0.21323 -0.0433,0.41322 -0.13,0.59997 -0.0867,0.18678 -0.20163,0.35015 -0.34485,0.49011 -0.14323,0.13999 -0.31322,0.25168 -0.50995,0.33509 -0.19674,0.0834 -0.40518,0.12513 -0.62531,0.12512 -0.21321,10e-6 -0.4131,-0.0417 -0.59967,-0.12512 -0.18656,-0.0834 -0.34993,-0.1951 -0.49011,-0.33509 -0.14018,-0.13996 -0.25187,-0.30333 -0.33508,-0.49011 -0.0832,-0.18675 -0.12482,-0.38674 -0.12482,-0.59997 0,-0.21972 0.0416,-0.42632 0.12482,-0.61982 0.0832,-0.19346 0.1949,-0.36019 0.33508,-0.50018 0.14018,-0.13996 0.30355,-0.25155 0.49011,-0.33478 0.18657,-0.0832 0.38646,-0.1248 0.59967,-0.12481 0.22013,1e-5 0.42857,0.0416 0.62531,0.12481 0.19673,0.0832 0.36672,0.19482 0.50995,0.33478 0.14322,0.13999 0.25817,0.30672 0.34485,0.50018 0.0867,0.1935 0.13,0.4001 0.13,0.61982 z"
         id="path3754"
         inkscape:connector-curvature="0" />
      <path
         d="m 125.43398,302.02335 c 0.27994,0.33976 0.58492,0.57973 0.91492,0.71991 0.32999,0.14017 0.68826,0.21026 1.07483,0.21026 0.37352,0 0.71023,-0.0701 1.01013,-0.21026 0.29988,-0.14018 0.5548,-0.3536 0.76477,-0.64026 0.20995,-0.28666 0.37159,-0.6483 0.48492,-1.0849 0.11332,-0.4366 0.16998,-0.95154 0.16998,-1.5448 0,-0.60018 -0.0483,-1.1086 -0.14495,-1.52527 -0.0967,-0.41666 -0.2349,-0.755 -0.41474,-1.01502 -0.17986,-0.26 -0.39816,-0.44992 -0.6549,-0.56976 -0.25677,-0.11982 -0.54851,-0.17974 -0.87525,-0.17975 -0.51311,1e-5 -0.94971,0.10835 -1.30981,0.32501 -0.36012,0.21669 -0.70008,0.52156 -1.0199,0.91462 z m -0.13001,-6.19996 c 0.41992,-0.47321 0.8965,-0.85651 1.42975,-1.1499 0.53324,-0.29336 1.15997,-0.44005 1.88019,-0.44006 0.55989,10e-6 1.07146,0.11669 1.53473,0.35004 0.46325,0.23336 0.86323,0.5717 1.19995,1.01501 0.3367,0.44333 0.59671,0.99 0.78003,1.64001 0.1833,0.65004 0.27495,1.39497 0.27496,2.23481 -1e-5,0.7666 -0.10326,1.47654 -0.30975,2.12982 -0.20651,0.65328 -0.50152,1.21999 -0.88501,1.70013 -0.38351,0.48015 -0.84687,0.85521 -1.39008,1.12519 -0.54322,0.26998 -1.15153,0.40496 -1.82495,0.40496 -0.57333,0 -1.06334,-0.0884 -1.47003,-0.26519 -0.4067,-0.1768 -0.76996,-0.42186 -1.08978,-0.73517 l 0,4.20044 -2.47009,0 0,-13.61023 1.51001,0 c 0.31982,1e-5 0.52978,0.14995 0.62988,0.44983 z"
         id="path3756"
         inkscape:connector-curvature="0" />
      <path
         d="m 138.66079,296.20303 c 0.32022,-0.61319 0.70027,-1.09475 1.14013,-1.4447 0.43986,-0.34992 0.95988,-0.52489 1.56006,-0.5249 0.47322,10e-6 0.85327,0.10336 1.14014,0.31006 l -0.15991,1.84997 c -0.0334,0.12005 -0.0818,0.20499 -0.14527,0.25482 -0.0635,0.0499 -0.14852,0.0748 -0.25513,0.0748 -0.0997,1e-5 -0.24791,-0.0167 -0.44464,-0.05 -0.19674,-0.0333 -0.38849,-0.05 -0.57525,-0.05 -0.27345,0 -0.51677,0.0401 -0.72998,0.12023 -0.21322,0.0802 -0.40487,0.19522 -0.57495,0.34516 -0.17009,0.14995 -0.32014,0.33163 -0.45014,0.54504 -0.13001,0.21343 -0.25157,0.45665 -0.36468,0.72968 l 0,6.32019 -2.4701,0 0,-10.26001 1.4502,0 c 0.25309,1e-5 0.42968,0.045 0.52978,0.13489 0.1001,0.0899 0.16683,0.25167 0.2002,0.48523 z"
         id="path3758"
         inkscape:connector-curvature="0" />
      <path
         d="m 150.33181,294.26334 c 0.76008,10e-6 1.45181,0.1233 2.07519,0.36987 0.62337,0.24659 1.15671,0.59663 1.60004,1.05011 0.44331,0.4535 0.7849,1.00688 1.02478,1.66016 0.23986,0.65328 0.35979,1.38316 0.3598,2.18963 -1e-5,0.8134 -0.11994,1.54674 -0.3598,2.20001 -0.23988,0.65329 -0.58147,1.20993 -1.02478,1.66993 -0.44333,0.46 -0.97667,0.81339 -1.60004,1.06018 -0.62338,0.24678 -1.31511,0.37017 -2.07519,0.37017 -0.76661,0 -1.46322,-0.12339 -2.08985,-0.37017 -0.62663,-0.24679 -1.1616,-0.60018 -1.60492,-1.06018 -0.44332,-0.46 -0.78664,-1.01664 -1.02997,-1.66993 -0.24332,-0.65327 -0.36499,-1.38661 -0.36499,-2.20001 0,-0.80647 0.12167,-1.53635 0.36499,-2.18963 0.24333,-0.65328 0.58665,-1.20666 1.02997,-1.66016 0.44332,-0.45348 0.97829,-0.80352 1.60492,-1.05011 0.62663,-0.24657 1.32324,-0.36986 2.08985,-0.36987 z m 0,8.67004 c 0.85326,0 1.48497,-0.28666 1.89514,-0.85999 0.41015,-0.57332 0.61522,-1.41336 0.61523,-2.52014 -1e-5,-1.10676 -0.20508,-1.95016 -0.61523,-2.53021 -0.41017,-0.58003 -1.04188,-0.87005 -1.89514,-0.87006 -0.86671,10e-6 -1.50839,0.29176 -1.92505,0.87525 -0.41667,0.5835 -0.62501,1.42518 -0.625,2.52502 -1e-5,1.09986 0.20833,1.93818 0.625,2.51496 0.41666,0.57678 1.05834,0.86517 1.92505,0.86517 z"
         id="path3760"
         inkscape:connector-curvature="0" />
      <path
         d="m 165.71621,297.04349 c -0.27996,-0.34016 -0.58493,-0.58024 -0.91492,-0.72022 -0.33,-0.13996 -0.68503,-0.20995 -1.06506,-0.20996 -0.37314,10e-6 -0.70975,0.07 -1.00983,0.20996 -0.3001,0.13998 -0.55685,0.35167 -0.77027,0.63507 -0.21342,0.28342 -0.37679,0.64342 -0.49011,1.08002 -0.11332,0.43661 -0.16998,0.95154 -0.16998,1.5448 0,0.60018 0.0484,1.10861 0.14526,1.52527 0.0968,0.41667 0.23519,0.75663 0.41504,1.0199 0.17985,0.26326 0.39978,0.45318 0.65979,0.56976 0.26001,0.11658 0.55013,0.17487 0.87036,0.17487 0.5131,0 0.9497,-0.10661 1.30982,-0.31983 0.3601,-0.21321 0.70006,-0.51656 1.0199,-0.91003 z m 2.47009,-7.22046 0,14.86023 -1.51001,0 c -0.32675,0 -0.53346,-0.14994 -0.62012,-0.44983 l -0.20996,-0.98999 c -0.41342,0.47323 -0.88837,0.85653 -1.42487,1.1499 -0.5365,0.29338 -1.1616,0.44006 -1.8753,0.44006 -0.5599,0 -1.07321,-0.11667 -1.53992,-0.35003 -0.46672,-0.23336 -0.86833,-0.5717 -1.20483,-1.01502 -0.33651,-0.44331 -0.59652,-0.99161 -0.78003,-1.64489 -0.18351,-0.65328 -0.27527,-1.40004 -0.27527,-2.2403 0,-0.76008 0.10335,-1.46677 0.31006,-2.12006 0.2067,-0.65327 0.50344,-1.21988 0.8902,-1.69982 0.38675,-0.47994 0.85011,-0.85489 1.39007,-1.12488 0.53996,-0.26997 1.14665,-0.40496 1.82007,-0.40497 0.57332,10e-6 1.06333,0.0899 1.47003,0.26977 0.40669,0.17986 0.76995,0.42319 1.08979,0.72998 l 0,-5.41015 z"
         id="path3762"
         inkscape:connector-curvature="0" />
      <path
         d="m 181.4833,294.42325 0,10.26001 -1.51001,0 c -0.32635,0 -0.53285,-0.14994 -0.61951,-0.44983 l -0.17029,-0.82031 c -0.41993,0.42684 -0.88329,0.77189 -1.39007,1.03515 -0.50681,0.26327 -1.10342,0.3949 -1.78986,0.3949 -0.5599,0 -1.0549,-0.095 -1.48499,-0.28503 -0.43009,-0.19003 -0.79183,-0.45838 -1.0852,-0.80506 -0.29338,-0.34668 -0.51504,-0.75836 -0.66498,-1.23504 -0.14994,-0.47669 -0.22492,-1.00169 -0.22491,-1.57502 l 0,-6.51977 2.47009,0 0,6.51977 c 0,0.62663 0.14495,1.11166 0.43487,1.45508 0.28992,0.34343 0.725,0.51514 1.30524,0.51514 0.42643,0 0.82631,-0.095 1.19965,-0.28504 0.37332,-0.19002 0.72661,-0.45165 1.05987,-0.78491 l 0,-7.42004 z"
         id="path3764"
         inkscape:connector-curvature="0" />
      <path
         d="m 188.40273,289.82303 0,8.51013 0.45959,0 c 0.16683,10e-6 0.29856,-0.0217 0.39521,-0.065 0.0966,-0.0433 0.195,-0.13173 0.2951,-0.2652 l 2.55005,-3.14941 c 0.1066,-0.14037 0.22491,-0.24719 0.35492,-0.32044 0.13,-0.0732 0.29835,-0.10985 0.50507,-0.10986 l 2.26013,0 -3.19031,3.80981 c -0.22665,0.3003 -0.47323,0.5304 -0.73975,0.69031 0.13997,0.1001 0.26489,0.21678 0.37476,0.35004 0.10986,0.13326 0.21484,0.27659 0.31494,0.42999 l 3.4198,4.97986 -2.22961,0 c -0.19329,0 -0.35992,-0.0316 -0.49988,-0.0949 -0.13998,-0.0633 -0.25676,-0.17833 -0.35034,-0.34516 l -2.61963,-3.88977 c -0.0936,-0.15339 -0.19033,-0.25339 -0.29022,-0.29998 -0.0999,-0.0466 -0.24995,-0.0699 -0.45014,-0.0699 l -0.55969,0 0,4.69971 -2.47009,0 0,-14.86023 z"
         id="path3766"
         inkscape:connector-curvature="0" />
      <path
         d="m 202.05556,304.84317 c -0.89315,0 -1.57807,-0.25167 -2.05475,-0.755 -0.47668,-0.50334 -0.71503,-1.19833 -0.71502,-2.08497 l 0,-5.72998 -1.05042,0 c -0.13306,1e-5 -0.24628,-0.0433 -0.33966,-0.13 -0.0934,-0.0867 -0.14008,-0.21667 -0.14008,-0.39002 l 0,-0.98022 1.64978,-0.26978 0.52002,-2.79968 c 0.0334,-0.13345 0.0967,-0.2369 0.19013,-0.31036 0.0934,-0.0734 0.21352,-0.11016 0.36041,-0.11017 l 1.27991,0 0,3.22998 2.73987,0 0,1.76025 -2.73987,0 0,5.56031 c -1e-5,0.31982 0.0783,0.56976 0.23498,0.74981 0.15666,0.18006 0.3715,0.27009 0.64454,0.27008 0.15339,10e-6 0.28177,-0.0183 0.38513,-0.0549 0.10334,-0.0366 0.19337,-0.075 0.27008,-0.11505 0.0767,-0.0401 0.14505,-0.0784 0.20508,-0.11505 0.06,-0.0366 0.11992,-0.0549 0.17974,-0.0549 0.0736,0 0.13377,0.0183 0.18036,0.0549 0.0466,0.0366 0.0965,0.0915 0.14984,0.16479 l 0.73975,1.19996 c -0.35971,0.29988 -0.77291,0.52653 -1.23962,0.67993 -0.46672,0.1534 -0.95012,0.2301 -1.4502,0.2301 z"
         id="path3768"
         inkscape:connector-curvature="0" />
      <path
         d="m 207.69753,303.32339 c 0,-0.2067 0.0384,-0.40344 0.11505,-0.59021 0.0767,-0.18676 0.18168,-0.34677 0.31494,-0.48004 0.13326,-0.13325 0.29327,-0.23986 0.48004,-0.31982 0.18677,-0.0799 0.38676,-0.11993 0.59998,-0.11993 0.21321,0 0.41147,0.04 0.59479,0.11993 0.1833,0.08 0.34332,0.18657 0.48004,0.31982 0.13671,0.13327 0.24505,0.29328 0.32501,0.48004 0.0799,0.18677 0.11993,0.38351 0.11993,0.59021 0,0.21322 -0.04,0.41148 -0.11993,0.59479 -0.08,0.18331 -0.1883,0.3417 -0.32501,0.47516 -0.13672,0.13346 -0.29674,0.23845 -0.48004,0.31494 -0.18332,0.0765 -0.38158,0.11475 -0.59479,0.11475 -0.21322,0 -0.41321,-0.0383 -0.59998,-0.11475 -0.18677,-0.0765 -0.34678,-0.18148 -0.48004,-0.31494 -0.13326,-0.13346 -0.23824,-0.29185 -0.31494,-0.47516 -0.0767,-0.18331 -0.11505,-0.38157 -0.11505,-0.59479 z"
         id="path3770"
         inkscape:connector-curvature="0" />
      <path
         d="m 214.46315,303.32339 c 0,-0.2067 0.0383,-0.40344 0.11506,-0.59021 0.0767,-0.18676 0.18168,-0.34677 0.31494,-0.48004 0.13326,-0.13325 0.29327,-0.23986 0.48004,-0.31982 0.18676,-0.0799 0.38676,-0.11993 0.59997,-0.11993 0.21322,0 0.41148,0.04 0.59479,0.11993 0.18331,0.08 0.34332,0.18657 0.48004,0.31982 0.13672,0.13327 0.24506,0.29328 0.32501,0.48004 0.08,0.18677 0.11994,0.38351 0.11994,0.59021 0,0.21322 -0.04,0.41148 -0.11994,0.59479 -0.0799,0.18331 -0.18829,0.3417 -0.32501,0.47516 -0.13672,0.13346 -0.29673,0.23845 -0.48004,0.31494 -0.18331,0.0765 -0.38157,0.11475 -0.59479,0.11475 -0.21321,0 -0.41321,-0.0383 -0.59997,-0.11475 -0.18677,-0.0765 -0.34678,-0.18148 -0.48004,-0.31494 -0.13326,-0.13346 -0.23825,-0.29185 -0.31494,-0.47516 -0.0767,-0.18331 -0.11506,-0.38157 -0.11506,-0.59479 z"
         id="path3772"
         inkscape:connector-curvature="0" />
    </g>
    <g
       id="g3927"
       style="fill:#000000;filter:url(#filter3993)"
       transform="translate(2,2)">
      <g
         id="g3929"
         transform="translate(0,-0.20349404)"
         style="fill:#000000">
        <rect
           ry="8.485281"
           y="376.38354"
           x="31.140503"
           height="69.280998"
           width="437.71899"
           id="rect3931"
           style="fill:#000000;fill-opacity:1;stroke:none" />
        <g
           id="g3933"
           style="font-size:24px;font-style:normal;font-variant:normal;font-weight:bold;font-stretch:normal;text-align:start;line-height:125%;letter-spacing:0px;word-spacing:0px;writing-mode:lr-tb;text-anchor:start;fill:#000000;fill-opacity:1;stroke:none;font-family:Lato;-inkscape-font-specification:Lato Bold"
           transform="translate(-23.656544,257.15458)">
          <path
             inkscape:connector-curvature="0"
             id="path3935"
             d="m 82.525093,152.14754 c 0.592277,1e-5 1.10839,-0.074 1.54834,-0.22193 0.439932,-0.14794 0.805898,-0.35997 1.0979,-0.6361 0.291982,-0.27612 0.509999,-0.61218 0.654053,-1.00818 0.144032,-0.39599 0.216053,-0.83788 0.216065,-1.32569 -1.2e-5,-0.46434 -0.07203,-0.88451 -0.216065,-1.2605 -0.144054,-0.37596 -0.360118,-0.6959 -0.648193,-0.95983 -0.288096,-0.26391 -0.652109,-0.46581 -1.092041,-0.60572 -0.43995,-0.13987 -0.959969,-0.20982 -1.560059,-0.20984 l -2.411865,0 0,6.22779 z m 0,-8.72388 c 1.160148,2e-5 2.164175,0.136 3.012085,0.40796 0.847889,0.27199 1.547839,0.65199 2.099854,1.14001 0.551988,0.48806 0.962022,1.07204 1.230102,1.75196 0.268052,0.67994 0.402085,1.42396 0.4021,2.23205 -1.5e-5,0.83986 -0.140029,1.60975 -0.420044,2.3097 -0.280043,0.69996 -0.700087,1.30201 -1.260132,1.80615 -0.560071,0.50416 -1.262096,0.89624 -2.106079,1.17627 -0.844004,0.28003 -1.829965,0.42005 -2.957886,0.42004 l -2.411865,0 0,6.10767 -3.227783,0 0,-17.35181 z"
             style="fill:#000000" />
          <path
             inkscape:connector-curvature="0"
             id="path3937"
             d="m 96.724556,148.27156 c 0.912102,1e-5 1.742179,0.14796 2.490234,0.44385 0.748037,0.29591 1.38805,0.71595 1.92004,1.26013 0.53197,0.5442 0.94189,1.20826 1.22974,1.99219 0.28783,0.78394 0.43175,1.65979 0.43176,2.62756 -1e-5,0.97608 -0.14393,1.85608 -0.43176,2.64002 -0.28785,0.78393 -0.69777,1.4519 -1.22974,2.0039 -0.53199,0.552 -1.172003,0.97608 -1.92004,1.27222 -0.748055,0.29614 -1.578132,0.44421 -2.490234,0.44421 -0.919928,0 -1.755865,-0.14807 -2.507813,-0.44421 -0.751956,-0.29614 -1.393923,-0.72022 -1.925903,-1.27222 -0.531984,-0.552 -0.943971,-1.21997 -1.235962,-2.0039 -0.291993,-0.78394 -0.437989,-1.66394 -0.437988,-2.64002 -10e-7,-0.96777 0.145995,-1.84362 0.437988,-2.62756 0.291991,-0.78393 0.703978,-1.44799 1.235962,-1.99219 0.53198,-0.54418 1.173947,-0.96422 1.925903,-1.26013 0.751948,-0.29589 1.587885,-0.44384 2.507813,-0.44385 z m 0,10.40405 c 1.023918,1e-5 1.781974,-0.34399 2.27417,-1.03198 0.492178,-0.68798 0.738271,-1.69604 0.738281,-3.02417 -1e-5,-1.32812 -0.246103,-2.3402 -0.738281,-3.03625 -0.492196,-0.69604 -1.250252,-1.04406 -2.27417,-1.04407 -1.040045,1e-5 -1.810064,0.35011 -2.310059,1.05029 -0.500004,0.70021 -0.750003,1.71021 -0.75,3.03003 -3e-6,1.31983 0.249996,2.32581 0.75,3.01795 0.499995,0.69214 1.270014,1.03821 2.310059,1.0382 z"
             style="fill:#000000" />
          <path
             inkscape:connector-curvature="0"
             id="path3939"
             d="m 105.05805,160.77547 0,-12.31201 1.81201,0 c 0.38379,1e-5 0.63574,0.17994 0.75586,0.53979 l 0.1919,0.91187 c 0.2163,-0.23974 0.44238,-0.45959 0.67822,-0.65955 0.23584,-0.19994 0.48779,-0.37194 0.75586,-0.51599 0.26806,-0.14403 0.55602,-0.25805 0.86389,-0.34204 0.30786,-0.084 0.64587,-0.12597 1.01404,-0.12598 0.77587,1e-5 1.41381,0.20997 1.91382,0.62988 0.49999,0.41994 0.87401,0.97804 1.12207,1.67432 0.19237,-0.40819 0.43248,-0.75829 0.72033,-1.05029 0.28784,-0.29198 0.60375,-0.53002 0.94776,-0.71411 0.34398,-0.18407 0.70995,-0.32006 1.0979,-0.40796 0.38793,-0.0879 0.77794,-0.13183 1.17004,-0.13184 0.68016,1e-5 1.28429,0.10402 1.81238,0.31201 0.52806,0.20802 0.97203,0.51198 1.33191,0.91187 0.35985,0.39991 0.63377,0.88795 0.82178,1.46411 0.18797,0.57618 0.28196,1.23609 0.28198,1.97974 l 0,7.83618 -2.96411,0 0,-7.83618 c -2e-5,-0.78369 -0.17201,-1.37353 -0.51599,-1.76954 -0.34401,-0.39598 -0.84804,-0.59398 -1.51209,-0.59399 -0.30372,1e-5 -0.58558,0.052 -0.84558,0.15601 -0.26002,0.10401 -0.48805,0.25391 -0.68408,0.4497 -0.19606,0.19581 -0.35011,0.44178 -0.46216,0.73792 -0.11207,0.29615 -0.1681,0.63611 -0.16809,1.0199 l 0,7.83618 -2.97583,0 0,-7.83618 c -10e-6,-0.82373 -0.16602,-1.42358 -0.49805,-1.79957 -0.33204,-0.37596 -0.81787,-0.56395 -1.45752,-0.56396 -0.43213,1e-5 -0.83423,0.10597 -1.20629,0.31787 -0.37208,0.21192 -0.71803,0.50196 -1.03785,0.87012 l 0,9.01172 z"
             style="fill:#000000" />
          <path
             inkscape:connector-curvature="0"
             id="path3941"
             d="m 128.2392,148.46346 0,12.31201 -2.97583,0 0,-12.31201 z m 0.40796,-3.58814 c 0,0.25588 -0.052,0.49587 -0.156,0.71997 -0.10401,0.22414 -0.24195,0.42018 -0.41382,0.58814 -0.17188,0.16798 -0.37391,0.30201 -0.60608,0.4021 -0.23218,0.10011 -0.48011,0.15016 -0.74377,0.15014 -0.25635,2e-5 -0.49842,-0.05 -0.7262,-0.15014 -0.22779,-0.10009 -0.42578,-0.23412 -0.59399,-0.4021 -0.16822,-0.16796 -0.30225,-0.364 -0.4021,-0.58814 -0.0999,-0.2241 -0.14979,-0.46409 -0.14978,-0.71997 -10e-6,-0.26366 0.0499,-0.51158 0.14978,-0.74377 0.0999,-0.23216 0.23388,-0.43224 0.4021,-0.60022 0.16821,-0.16796 0.3662,-0.30187 0.59399,-0.40174 0.22778,-0.0998 0.46985,-0.14976 0.7262,-0.14978 0.26366,2e-5 0.51159,0.05 0.74377,0.14978 0.23217,0.0999 0.4342,0.23378 0.60608,0.40174 0.17187,0.16798 0.30981,0.36806 0.41382,0.60022 0.104,0.23219 0.156,0.48011 0.156,0.74377 z"
             style="fill:#000000" />
          <path
             inkscape:connector-curvature="0"
             id="path3943"
             d="m 138.98896,151.60774 c -0.33595,-0.40819 -0.70191,-0.69628 -1.0979,-0.86426 -0.396,-0.16795 -0.82203,-0.25194 -1.27808,-0.25195 -0.44776,10e-6 -0.85169,0.084 -1.21179,0.25195 -0.36011,0.16798 -0.66822,0.42201 -0.92431,0.76209 -0.25611,0.3401 -0.45216,0.7721 -0.58814,1.29602 -0.13599,0.52393 -0.20398,1.14185 -0.20398,1.85376 0,0.72022 0.0581,1.33033 0.17432,1.83032 0.1162,0.50001 0.28222,0.90796 0.49804,1.22388 0.21582,0.31592 0.47974,0.54382 0.79175,0.68371 0.31201,0.1399 0.66015,0.20985 1.04444,0.20984 0.61571,10e-6 1.13964,-0.12792 1.57177,-0.38379 0.43212,-0.25585 0.84008,-0.61987 1.22388,-1.09204 z m 2.96411,-8.66455 0,17.83228 -1.81201,0 c -0.3921,0 -0.64015,-0.17993 -0.74414,-0.5398 l -0.25195,-1.18799 c -0.49611,0.56788 -1.06605,1.02784 -1.70984,1.37989 -0.64381,0.35205 -1.39393,0.52807 -2.25037,0.52807 -0.67188,0 -1.28784,-0.14001 -1.8479,-0.42004 -0.56006,-0.28003 -1.04199,-0.68604 -1.4458,-1.21802 -0.40381,-0.53198 -0.71582,-1.18994 -0.93604,-1.97388 -0.22021,-0.78393 -0.33032,-1.68004 -0.33032,-2.68835 0,-0.9121 0.12402,-1.76012 0.37207,-2.54407 0.24805,-0.78392 0.60413,-1.46385 1.06824,-2.03979 0.46411,-0.57592 1.02014,-1.02587 1.66809,-1.34986 0.64795,-0.32396 1.37597,-0.48595 2.18408,-0.48596 0.68798,1e-5 1.276,0.10792 1.76404,0.32373 0.48803,0.21583 0.92394,0.50783 1.30774,0.87598 l 0,-6.49219 z"
             style="fill:#000000" />
          <path
             inkscape:connector-curvature="0"
             id="path3945"
             d="m 150.34956,148.27156 c 0.9121,1e-5 1.74217,0.14796 2.49023,0.44385 0.74804,0.29591 1.38805,0.71595 1.92004,1.26013 0.53197,0.5442 0.94189,1.20826 1.22974,1.99219 0.28783,0.78394 0.43175,1.65979 0.43176,2.62756 -1e-5,0.97608 -0.14393,1.85608 -0.43176,2.64002 -0.28785,0.78393 -0.69777,1.4519 -1.22974,2.0039 -0.53199,0.552 -1.172,0.97608 -1.92004,1.27222 -0.74806,0.29614 -1.57813,0.44421 -2.49023,0.44421 -0.91993,0 -1.75587,-0.14807 -2.50782,-0.44421 -0.75195,-0.29614 -1.39392,-0.72022 -1.9259,-1.27222 -0.53198,-0.552 -0.94397,-1.21997 -1.23596,-2.0039 -0.29199,-0.78394 -0.43799,-1.66394 -0.43799,-2.64002 0,-0.96777 0.146,-1.84362 0.43799,-2.62756 0.29199,-0.78393 0.70398,-1.44799 1.23596,-1.99219 0.53198,-0.54418 1.17395,-0.96422 1.9259,-1.26013 0.75195,-0.29589 1.58789,-0.44384 2.50782,-0.44385 z m 0,10.40405 c 1.02391,1e-5 1.78197,-0.34399 2.27417,-1.03198 0.49217,-0.68798 0.73827,-1.69604 0.73828,-3.02417 -1e-5,-1.32812 -0.24611,-2.3402 -0.73828,-3.03625 -0.4922,-0.69604 -1.25026,-1.04406 -2.27417,-1.04407 -1.04005,1e-5 -1.81007,0.35011 -2.31006,1.05029 -0.50001,0.70021 -0.75001,1.71021 -0.75,3.03003 -1e-5,1.31983 0.24999,2.32581 0.75,3.01795 0.49999,0.69214 1.27001,1.03821 2.31006,1.0382 z"
             style="fill:#000000" />
          <path
             inkscape:connector-curvature="0"
             id="path3947"
             d="m 161.47871,150.5992 c 0.38427,-0.73583 0.84032,-1.31371 1.36816,-1.73365 0.52783,-0.4199 1.15185,-0.62987 1.87207,-0.62988 0.56786,1e-5 1.02392,0.12404 1.36816,0.37207 l -0.19189,2.21997 c -0.04,0.14406 -0.0982,0.24598 -0.17432,0.30579 -0.0762,0.0598 -0.17823,0.0897 -0.30615,0.0897 -0.11964,1e-5 -0.29749,-0.02 -0.53357,-0.0601 -0.23609,-0.04 -0.46619,-0.0601 -0.69031,-0.0601 -0.32813,1e-5 -0.62012,0.0481 -0.87597,0.14429 -0.25587,0.0962 -0.48585,0.23426 -0.68994,0.41419 -0.20411,0.17994 -0.38416,0.39795 -0.54016,0.65405 -0.15602,0.25611 -0.30189,0.54798 -0.43763,0.87561 l 0,7.58423 -2.96411,0 0,-12.31201 1.74024,0 c 0.3037,1e-5 0.51562,0.054 0.63574,0.16186 0.12011,0.10792 0.20019,0.30201 0.24023,0.58228 z"
             style="fill:#000000" />
          <path
             inkscape:connector-curvature="0"
             id="path3949"
             d="m 178.82026,148.46346 -6.70825,15.6958 c -0.0879,0.208 -0.20191,0.36608 -0.34204,0.47424 -0.14015,0.10815 -0.35401,0.16223 -0.64161,0.16223 l -2.20825,0 2.3042,-4.94458 -4.98047,-11.38769 2.6045,0 c 0.23193,1e-5 0.41381,0.056 0.54565,0.16809 0.13183,0.11207 0.22998,0.24012 0.29443,0.38415 l 2.61548,6.38379 c 0.0879,0.21583 0.16186,0.43177 0.22193,0.64783 0.06,0.21607 0.11815,0.43616 0.17431,0.66028 0.0718,-0.22412 0.14367,-0.44617 0.2157,-0.66614 0.072,-0.21997 0.15197,-0.43786 0.23987,-0.65369 l 2.47265,-6.37207 c 0.064,-0.16014 0.16992,-0.29222 0.31788,-0.39624 0.14793,-0.10399 0.31395,-0.15599 0.49804,-0.156 z"
             style="fill:#000000" />
        </g>
      </g>
      <g
         id="g3951"
         style="fill:#000000">
        <rect
           style="fill:#000000;fill-opacity:1;stroke:none"
           id="rect3953"
           width="437.71899"
           height="69.280998"
           x="31.140503"
           y="476.08563"
           ry="8.485281" />
        <g
           id="g3955"
           style="font-size:24px;font-style:normal;font-variant:normal;font-weight:bold;font-stretch:normal;text-align:start;line-height:125%;letter-spacing:0px;word-spacing:0px;writing-mode:lr-tb;text-anchor:start;fill:#000000;fill-opacity:1;stroke:none;font-family:Lato;-inkscape-font-specification:Lato Bold"
           transform="translate(-64.343869,331.2448)">
          <path
             inkscape:connector-curvature="0"
             id="path3957"
             d="m 135.15236,177.55505 c -2e-5,1.27198 -0.20998,2.44996 -0.62988,3.53394 -0.41994,1.08399 -1.01394,2.0221 -1.78199,2.81433 -0.76808,0.79224 -1.69203,1.41028 -2.77185,1.85413 -1.07984,0.44384 -2.27992,0.66577 -3.60022,0.66577 -1.31202,0 -2.50794,-0.22193 -3.58777,-0.66577 -1.07983,-0.44385 -2.00574,-1.06189 -2.77771,-1.85413 -0.77197,-0.79223 -1.36999,-1.73034 -1.79406,-2.81433 -0.42408,-1.08398 -0.63611,-2.26196 -0.63611,-3.53394 0,-1.27196 0.21203,-2.44994 0.63611,-3.53393 0.42407,-1.08397 1.02209,-2.02196 1.79406,-2.81397 0.77197,-0.79197 1.69788,-1.40989 2.77771,-1.85376 1.07983,-0.44383 2.27575,-0.66575 3.58777,-0.66577 0.88036,2e-5 1.70849,0.10195 2.48438,0.30579 0.77586,0.20387 1.48778,0.49184 2.13574,0.86389 0.64793,0.37209 1.22997,0.82411 1.74609,1.35608 0.5161,0.532 0.95409,1.12599 1.31397,1.78198 0.35984,0.65602 0.63377,1.36806 0.82178,2.13611 0.18797,0.76808 0.28196,1.57594 0.28198,2.42358 z m -3.29956,0 c -2e-5,-0.95165 -0.12807,-1.80553 -0.38416,-2.56164 -0.25611,-0.75609 -0.62013,-1.39818 -1.09204,-1.92627 -0.47193,-0.52806 -1.04591,-0.93199 -1.72192,-1.21179 -0.67604,-0.27977 -1.43812,-0.41967 -2.28626,-0.41968 -0.84766,1e-5 -1.6095,0.13991 -2.28552,0.41968 -0.67603,0.2798 -1.25208,0.68373 -1.72815,1.21179 -0.47608,0.52809 -0.84217,1.17018 -1.09827,1.92627 -0.2561,0.75611 -0.38415,1.60999 -0.38415,2.56164 0,0.95216 0.12805,1.80628 0.38415,2.56238 0.2561,0.75611 0.62219,1.39612 1.09827,1.92005 0.47607,0.52393 1.05212,0.9259 1.72815,1.20593 0.67602,0.28003 1.43786,0.42004 2.28552,0.42004 0.84814,0 1.61022,-0.14001 2.28626,-0.42004 0.67601,-0.28003 1.24999,-0.682 1.72192,-1.20593 0.47191,-0.52393 0.83593,-1.16394 1.09204,-1.92005 0.25609,-0.7561 0.38414,-1.61022 0.38416,-2.56238 z"
             style="fill:#000000" />
          <path
             inkscape:connector-curvature="0"
             id="path3959"
             d="m 142.04298,179.77502 c 0.36816,10e-6 0.68823,-0.0499 0.96021,-0.14978 0.27196,-0.0998 0.49792,-0.23778 0.67786,-0.41381 0.17992,-0.17602 0.31591,-0.38806 0.40795,-0.63611 0.092,-0.24804 0.13806,-0.52001 0.13807,-0.81592 -1e-5,-0.6079 -0.18202,-1.08983 -0.54602,-1.4458 -0.36403,-0.35595 -0.91005,-0.53393 -1.63807,-0.53394 -0.72803,1e-5 -1.27405,0.17799 -1.63806,0.53394 -0.36402,0.35597 -0.54602,0.8379 -0.54602,1.4458 0,0.28809 0.046,0.55616 0.13806,0.8042 0.092,0.24805 0.22803,0.46204 0.40796,0.64197 0.17993,0.17993 0.40796,0.31983 0.68408,0.41967 0.27612,0.0999 0.59412,0.14979 0.95398,0.14978 z m 3.3479,7.00855 c 0,-0.24024 -0.072,-0.43628 -0.21606,-0.58814 -0.14405,-0.15185 -0.3401,-0.26989 -0.58813,-0.35412 -0.24806,-0.0842 -0.5381,-0.14624 -0.87012,-0.18604 -0.33204,-0.0398 -0.68397,-0.0697 -1.05579,-0.0897 -0.37183,-0.02 -0.75574,-0.0381 -1.15173,-0.0542 -0.396,-0.0161 -0.78199,-0.0481 -1.15796,-0.0959 -0.32813,0.18408 -0.59424,0.40014 -0.79834,0.64819 -0.20411,0.24805 -0.30616,0.53589 -0.30615,0.86352 -1e-5,0.21631 0.0541,0.41846 0.16223,0.60645 0.10815,0.18799 0.28015,0.34997 0.51599,0.48596 0.23584,0.13599 0.54174,0.24194 0.91772,0.31787 0.37598,0.0759 0.83618,0.11389 1.38062,0.11389 0.55175,0 1.0277,-0.042 1.42786,-0.12597 0.40013,-0.084 0.73009,-0.19996 0.98986,-0.3479 0.25976,-0.14795 0.4497,-0.32398 0.56983,-0.52808 0.12011,-0.2041 0.18017,-0.42603 0.18017,-0.66577 z m 2.95166,-12.44458 0,1.10449 c -1e-5,0.35206 -0.21192,0.56813 -0.63574,0.64819 l -1.10376,0.20362 c 0.16796,0.42384 0.25194,0.88795 0.25196,1.39233 -2e-5,0.60792 -0.12209,1.15785 -0.36622,1.64978 -0.24415,0.49195 -0.58216,0.90992 -1.01403,1.25391 -0.4319,0.344 -0.94191,0.60999 -1.53003,0.79797 -0.58814,0.188 -1.22206,0.28199 -1.90174,0.28198 -0.24024,1e-5 -0.47229,-0.0119 -0.69616,-0.0359 -0.22388,-0.0239 -0.44398,-0.0559 -0.66028,-0.0959 -0.38379,0.23194 -0.57569,0.49195 -0.57568,0.78003 -1e-5,0.24805 0.114,0.43006 0.34204,0.54602 0.22802,0.11597 0.53002,0.19788 0.906,0.24573 0.37597,0.0479 0.80395,0.0779 1.28394,0.0901 0.47997,0.0122 0.97191,0.0382 1.47583,0.078 0.5039,0.0398 0.99596,0.10974 1.47619,0.20984 0.48022,0.1001 0.90832,0.25818 1.28431,0.47424 0.37596,0.21607 0.67796,0.51013 0.906,0.8822 0.22802,0.37207 0.34203,0.8501 0.34204,1.43408 -1e-5,0.54395 -0.13404,1.0719 -0.4021,1.58387 -0.26807,0.51196 -0.65614,0.96789 -1.16418,1.36779 -0.50807,0.3999 -1.13209,0.72192 -1.87207,0.96607 -0.74,0.24413 -1.58192,0.3662 -2.52576,0.36621 -0.92823,-1e-5 -1.73633,-0.0901 -2.42432,-0.27027 -0.68799,-0.18017 -1.26001,-0.42016 -1.71606,-0.71997 -0.45606,-0.2998 -0.79602,-0.64575 -1.0199,-1.03784 -0.22387,-0.39209 -0.33581,-0.80005 -0.33581,-1.22387 0,-0.57618 0.17395,-1.05823 0.52185,-1.44617 0.3479,-0.38794 0.8258,-0.69788 1.43371,-0.92981 -0.32764,-0.16846 -0.58752,-0.39258 -0.77966,-0.67236 -0.19214,-0.27979 -0.28821,-0.64771 -0.28821,-1.10376 0,-0.18408 0.0341,-0.37415 0.10218,-0.57019 0.0681,-0.19605 0.16808,-0.39002 0.29992,-0.58191 0.13184,-0.19189 0.29785,-0.3739 0.49805,-0.54602 0.20019,-0.17212 0.43628,-0.32605 0.70825,-0.4618 -0.62402,-0.33642 -1.11401,-0.78454 -1.46997,-1.34436 -0.35596,-0.5598 -0.53394,-1.21569 -0.53394,-1.96765 0,-0.60839 0.12195,-1.15856 0.36585,-1.65051 0.24389,-0.49193 0.58386,-0.91185 1.0199,-1.25977 0.43603,-0.34788 0.95202,-0.61388 1.54797,-0.79797 0.59594,-0.18407 1.24597,-0.27611 1.95007,-0.27612 0.52783,1e-5 1.0238,0.054 1.48792,0.16186 0.4641,0.10792 0.88805,0.26588 1.27185,0.47388 z"
             style="fill:#000000" />
          <path
             inkscape:connector-curvature="0"
             id="path3961"
             d="m 155.64699,173.72742 c 0.9121,1e-5 1.74218,0.14796 2.49023,0.44384 0.74804,0.29591 1.38805,0.71596 1.92005,1.26014 0.53197,0.5442 0.94188,1.20826 1.22973,1.99218 0.28783,0.78395 0.43175,1.6598 0.43177,2.62757 -2e-5,0.97608 -0.14394,1.85608 -0.43177,2.64001 -0.28785,0.78394 -0.69776,1.45191 -1.22973,2.00391 -0.532,0.552 -1.17201,0.97607 -1.92005,1.27222 -0.74805,0.29614 -1.57813,0.44421 -2.49023,0.44421 -0.91993,0 -1.75587,-0.14807 -2.50781,-0.44421 -0.75196,-0.29615 -1.39393,-0.72022 -1.92591,-1.27222 -0.53198,-0.552 -0.94397,-1.21997 -1.23596,-2.00391 -0.29199,-0.78393 -0.43799,-1.66393 -0.43799,-2.64001 0,-0.96777 0.146,-1.84362 0.43799,-2.62757 0.29199,-0.78392 0.70398,-1.44798 1.23596,-1.99218 0.53198,-0.54418 1.17395,-0.96423 1.92591,-1.26014 0.75194,-0.29588 1.58788,-0.44383 2.50781,-0.44384 z m 0,10.40405 c 1.02392,0 1.78197,-0.34399 2.27417,-1.03198 0.49218,-0.68799 0.73827,-1.69604 0.73828,-3.02417 -1e-5,-1.32812 -0.2461,-2.3402 -0.73828,-3.03626 -0.4922,-0.69603 -1.25025,-1.04405 -2.27417,-1.04406 -1.04005,1e-5 -1.81007,0.3501 -2.31006,1.05029 -0.5,0.7002 -0.75,1.71021 -0.75,3.03003 0,1.31983 0.25,2.32581 0.75,3.01794 0.49999,0.69214 1.27001,1.03821 2.31006,1.03821 z m 4.14917,-15.44385 -2.96338,3.13184 c -0.15235,0.15968 -0.29847,0.26954 -0.43836,0.32959 -0.1399,0.0601 -0.3219,0.0901 -0.54602,0.0901 l -1.77612,0 1.70435,-2.91578 c 0.12011,-0.20799 0.26012,-0.36595 0.42004,-0.47387 0.15991,-0.1079 0.39977,-0.16185 0.71961,-0.16187 z"
             style="fill:#000000" />
          <path
             inkscape:connector-curvature="0"
             id="path3963"
             d="m 166.77614,176.05505 c 0.38427,-0.73583 0.84033,-1.31371 1.36816,-1.73364 0.52783,-0.41991 1.15185,-0.62987 1.87207,-0.62988 0.56787,1e-5 1.02392,0.12403 1.36817,0.37207 l -0.1919,2.21997 c -0.0401,0.14405 -0.0982,0.24598 -0.17431,0.30579 -0.0762,0.0598 -0.17824,0.0897 -0.30616,0.0897 -0.11963,1e-5 -0.29749,-0.02 -0.53357,-0.0601 -0.23609,-0.04 -0.46619,-0.0601 -0.6903,-0.0601 -0.32814,1e-5 -0.62013,0.0481 -0.87598,0.14429 -0.25587,0.0962 -0.48585,0.23426 -0.68994,0.41418 -0.20411,0.17994 -0.38416,0.39796 -0.54016,0.65405 -0.15601,0.25612 -0.30189,0.54799 -0.43762,0.87561 l 0,7.58423 -2.96412,0 0,-12.31201 1.74024,0 c 0.30371,1e-5 0.51562,0.054 0.63574,0.16187 0.12011,0.10792 0.20019,0.30201 0.24023,0.58227 z"
             style="fill:#000000" />
          <path
             inkscape:connector-curvature="0"
             id="path3965"
             d="m 175.89772,168.39905 0,10.21216 0.55151,0 c 0.20019,0 0.35828,-0.026 0.47425,-0.078 0.11596,-0.052 0.234,-0.15807 0.35412,-0.31823 l 3.06006,-3.7793 c 0.12792,-0.16845 0.26989,-0.29662 0.42591,-0.38452 0.15599,-0.0879 0.35802,-0.13183 0.60607,-0.13184 l 2.71216,0 -3.82837,4.57178 c -0.27198,0.36036 -0.56788,0.63648 -0.88769,0.82837 0.16796,0.12012 0.31786,0.26014 0.4497,0.42004 0.13183,0.15992 0.25781,0.33192 0.37793,0.51599 l 4.10376,5.97583 -2.67553,0 c -0.23195,0 -0.4319,-0.038 -0.59986,-0.11389 -0.16797,-0.0759 -0.30811,-0.21399 -0.42041,-0.41418 l -3.14355,-4.66773 c -0.11231,-0.18407 -0.2284,-0.30407 -0.34827,-0.35998 -0.11988,-0.0559 -0.29993,-0.0839 -0.54016,-0.0839 l -0.67163,0 0,5.63965 -2.96411,0 0,-17.83227 z"
             style="fill:#000000" />
          <path
             inkscape:connector-curvature="0"
             id="path3967"
             d="m 188.84914,173.91931 0,12.31201 -2.97583,0 0,-12.31201 z m 0.40796,-3.58813 c -1e-5,0.25587 -0.052,0.49586 -0.15601,0.71997 -0.10401,0.22413 -0.24195,0.42018 -0.41382,0.58813 -0.17188,0.16799 -0.3739,0.30202 -0.60608,0.4021 -0.23218,0.10011 -0.4801,0.15016 -0.74377,0.15015 -0.25635,1e-5 -0.49842,-0.05 -0.7262,-0.15015 -0.22778,-0.10008 -0.42578,-0.23411 -0.59399,-0.4021 -0.16822,-0.16795 -0.30225,-0.364 -0.4021,-0.58813 -0.0999,-0.22411 -0.14978,-0.4641 -0.14978,-0.71997 0,-0.26366 0.0499,-0.51158 0.14978,-0.74378 0.0999,-0.23216 0.23388,-0.43223 0.4021,-0.60022 0.16821,-0.16795 0.36621,-0.30186 0.59399,-0.40173 0.22778,-0.0998 0.46985,-0.14976 0.7262,-0.14978 0.26367,2e-5 0.51159,0.0499 0.74377,0.14978 0.23218,0.0999 0.4342,0.23378 0.60608,0.40173 0.17187,0.16799 0.30981,0.36806 0.41382,0.60022 0.104,0.2322 0.156,0.48012 0.15601,0.74378 z"
             style="fill:#000000" />
        </g>
      </g>
      <g
         id="g3969"
         style="fill:#000000">
        <rect
           ry="8.485281"
           y="575.78772"
           x="31.140503"
           height="69.280998"
           width="437.71899"
           id="rect3971"
           style="fill:#000000;fill-opacity:1;stroke:none" />
        <g
           id="g3973"
           style="font-size:24px;font-style:normal;font-variant:normal;font-weight:bold;font-stretch:normal;text-align:start;line-height:125%;letter-spacing:0px;word-spacing:0px;writing-mode:lr-tb;text-anchor:start;fill:#000000;fill-opacity:1;stroke:none;font-family:Lato;-inkscape-font-specification:Lato Bold"
           transform="translate(-178.51302,398.37474)">
          <path
             inkscape:connector-curvature="0"
             id="path3975"
             d="m 250.55774,203.52774 0,17.35181 -2.84399,0 0,-11.20825 c -2e-5,-0.44775 0.0239,-0.93163 0.0718,-1.45166 l -5.24414,9.8518 c -0.24757,0.47217 -0.62745,0.70826 -1.13965,0.70825 l -0.4563,0 c -0.51172,1e-5 -0.89161,-0.23608 -1.13964,-0.70825 l -5.3042,-9.88769 c 0.0239,0.26368 0.0439,0.52357 0.0601,0.77966 0.0161,0.25611 0.0242,0.49208 0.0242,0.70789 l 0,11.20825 -2.844,0 0,-17.35181 2.43604,0 c 0.14403,2e-5 0.26806,0.004 0.37207,0.0121 0.104,0.008 0.19799,0.0281 0.28198,0.0601 0.084,0.032 0.15991,0.0839 0.22778,0.15564 0.0679,0.0718 0.13379,0.16775 0.19776,0.28785 l 5.19653,9.63647 c 0.13573,0.25587 0.26159,0.51978 0.37756,0.79175 0.11596,0.27198 0.23009,0.55201 0.34241,0.84009 0.11181,-0.2959 0.22777,-0.58191 0.3479,-0.85804 0.12011,-0.27611 0.24804,-0.5421 0.38379,-0.79797 l 5.12402,-9.6123 c 0.064,-0.1201 0.13194,-0.21605 0.20398,-0.28785 0.072,-0.0718 0.15001,-0.12364 0.23401,-0.15564 0.084,-0.032 0.17796,-0.052 0.28198,-0.0601 0.10399,-0.008 0.22801,-0.0121 0.37207,-0.0121 z"
             style="fill:#000000" />
          <path
             inkscape:connector-curvature="0"
             id="path3977"
             d="m 256.9613,203.04727 0,17.83228 -2.96411,0 0,-17.83228 z"
             style="fill:#000000" />
          <path
             inkscape:connector-curvature="0"
             id="path3979"
             d="m 267.84656,213.30777 c -1e-5,-0.38427 -0.0541,-0.74633 -0.16223,-1.08618 -0.10817,-0.33984 -0.27015,-0.63781 -0.48597,-0.89392 -0.21582,-0.2561 -0.48975,-0.45812 -0.82177,-0.60608 -0.33204,-0.14794 -0.71803,-0.22192 -1.15796,-0.22193 -0.85645,1e-5 -1.53065,0.24403 -2.02259,0.73206 -0.49194,0.48805 -0.80579,1.18006 -0.94152,2.07605 z m -5.6521,1.78784 c 0.0478,0.63184 0.15978,1.17774 0.33581,1.6377 0.17602,0.45996 0.40808,0.83997 0.69617,1.14001 0.28808,0.30005 0.63012,0.52405 1.02612,0.672 0.39599,0.14795 0.83398,0.22192 1.31397,0.22192 0.47997,0 0.89391,-0.0559 1.24182,-0.16772 0.34789,-0.11182 0.65185,-0.23572 0.91186,-0.37171 0.26001,-0.13598 0.48803,-0.26 0.68409,-0.37207 0.19603,-0.11205 0.38609,-0.16808 0.57019,-0.16809 0.24803,1e-5 0.43187,0.0921 0.55151,0.27613 l 0.85254,1.07959 c -0.32814,0.38427 -0.69618,0.70642 -1.10413,0.96643 -0.40797,0.26001 -0.83399,0.46801 -1.27807,0.62402 -0.4441,0.15601 -0.89613,0.26599 -1.35608,0.32996 -0.45997,0.064 -0.90601,0.0959 -1.33814,0.0959 -0.85596,0 -1.65186,-0.14209 -2.38769,-0.42627 -0.73584,-0.28418 -1.37586,-0.70422 -1.92005,-1.26013 -0.54419,-0.5559 -0.97229,-1.24389 -1.2843,-2.06396 -0.31201,-0.82007 -0.46802,-1.7699 -0.46801,-2.84949 -1e-5,-0.84033 0.13598,-1.63049 0.40795,-2.37048 0.27198,-0.73998 0.66199,-1.3839 1.17005,-1.93177 0.50805,-0.54784 1.12805,-0.9818 1.85998,-1.30188 0.73193,-0.32005 1.5581,-0.48009 2.47852,-0.4801 0.77587,1e-5 1.49181,0.12404 2.14783,0.37207 0.65599,0.24806 1.21996,0.61 1.69189,1.08582 0.47191,0.47584 0.84191,1.05982 1.10999,1.75195 0.26805,0.69215 0.40208,1.48206 0.4021,2.36975 -2e-5,0.44825 -0.048,0.75037 -0.14392,0.90637 -0.096,0.15601 -0.27992,0.23402 -0.55188,0.23401 z"
             style="fill:#000000" />
          <path
             inkscape:connector-curvature="0"
             id="path3981"
             d="m 275.67542,203.04727 0,10.21216 0.55151,0 c 0.20019,1e-5 0.35827,-0.026 0.47424,-0.078 0.11596,-0.052 0.234,-0.15808 0.35413,-0.31824 l 3.06006,-3.7793 c 0.12792,-0.16844 0.26988,-0.29662 0.4259,-0.38452 0.156,-0.0879 0.35802,-0.13182 0.60608,-0.13183 l 2.71216,0 -3.82837,4.57177 c -0.27198,0.36036 -0.56788,0.63648 -0.8877,0.82837 0.16796,0.12013 0.31787,0.26014 0.44971,0.42005 0.13183,0.15991 0.2578,0.33191 0.37793,0.51599 l 4.10376,5.97583 -2.67554,0 c -0.23194,0 -0.43189,-0.038 -0.59985,-0.11389 -0.16798,-0.0759 -0.30812,-0.21399 -0.42041,-0.41419 l -3.14356,-4.66772 c -0.11231,-0.18408 -0.2284,-0.30408 -0.34826,-0.35999 -0.11988,-0.0559 -0.29994,-0.0839 -0.54016,-0.0839 l -0.67163,0 0,5.63965 -2.96412,0 0,-17.83228 z"
             style="fill:#000000" />
          <path
             inkscape:connector-curvature="0"
             id="path3983"
             d="m 291.00281,208.37564 c 0.9121,1e-5 1.74218,0.14796 2.49023,0.44385 0.74804,0.29591 1.38805,0.71595 1.92005,1.26013 0.53197,0.5442 0.94188,1.20826 1.22973,1.99219 0.28783,0.78394 0.43175,1.6598 0.43176,2.62756 -1e-5,0.97608 -0.14393,1.85608 -0.43176,2.64002 -0.28785,0.78393 -0.69776,1.4519 -1.22973,2.0039 -0.532,0.55201 -1.17201,0.97608 -1.92005,1.27222 -0.74805,0.29614 -1.57813,0.44421 -2.49023,0.44421 -0.91993,0 -1.75587,-0.14807 -2.50781,-0.44421 -0.75196,-0.29614 -1.39393,-0.72021 -1.92591,-1.27222 -0.53198,-0.552 -0.94397,-1.21997 -1.23596,-2.0039 -0.29199,-0.78394 -0.43799,-1.66394 -0.43799,-2.64002 0,-0.96776 0.146,-1.84362 0.43799,-2.62756 0.29199,-0.78393 0.70398,-1.44799 1.23596,-1.99219 0.53198,-0.54418 1.17395,-0.96422 1.92591,-1.26013 0.75194,-0.29589 1.58788,-0.44384 2.50781,-0.44385 z m 0,10.40405 c 1.02392,1e-5 1.78197,-0.34399 2.27417,-1.03198 0.49218,-0.68798 0.73827,-1.69604 0.73828,-3.02417 -1e-5,-1.32812 -0.2461,-2.3402 -0.73828,-3.03625 -0.4922,-0.69604 -1.25025,-1.04406 -2.27417,-1.04407 -1.04005,10e-6 -1.81007,0.35011 -2.31006,1.05029 -0.50001,0.70021 -0.75,1.71021 -0.75,3.03003 0,1.31983 0.24999,2.32581 0.75,3.01795 0.49999,0.69214 1.27001,1.03821 2.31006,1.0382 z"
             style="fill:#000000" />
        </g>
      </g>
    </g>
    <g
       id="g3897">
      <g
         transform="translate(0,-0.20349404)"
         id="g3850">
        <rect
           style="fill:#ffffff;fill-opacity:1;stroke:none"
           id="rect3735"
           width="437.71899"
           height="69.280998"
           x="31.140503"
           y="376.38354"
           ry="8.485281" />
        <g
           transform="translate(-23.656544,257.15458)"
           style="font-size:24px;font-style:normal;font-variant:normal;font-weight:bold;font-stretch:normal;text-align:start;line-height:125%;letter-spacing:0px;word-spacing:0px;writing-mode:lr-tb;text-anchor:start;fill:#1a1a1a;fill-opacity:1;stroke:none;font-family:Lato;-inkscape-font-specification:Lato Bold"
           id="text3774">
          <path
             d="m 82.525093,152.14754 c 0.592277,1e-5 1.10839,-0.074 1.54834,-0.22193 0.439932,-0.14794 0.805898,-0.35997 1.0979,-0.6361 0.291982,-0.27612 0.509999,-0.61218 0.654053,-1.00818 0.144032,-0.39599 0.216053,-0.83788 0.216065,-1.32569 -1.2e-5,-0.46434 -0.07203,-0.88451 -0.216065,-1.2605 -0.144054,-0.37596 -0.360118,-0.6959 -0.648193,-0.95983 -0.288096,-0.26391 -0.652109,-0.46581 -1.092041,-0.60572 -0.43995,-0.13987 -0.959969,-0.20982 -1.560059,-0.20984 l -2.411865,0 0,6.22779 z m 0,-8.72388 c 1.160148,2e-5 2.164175,0.136 3.012085,0.40796 0.847889,0.27199 1.547839,0.65199 2.099854,1.14001 0.551988,0.48806 0.962022,1.07204 1.230102,1.75196 0.268052,0.67994 0.402085,1.42396 0.4021,2.23205 -1.5e-5,0.83986 -0.140029,1.60975 -0.420044,2.3097 -0.280043,0.69996 -0.700087,1.30201 -1.260132,1.80615 -0.560071,0.50416 -1.262096,0.89624 -2.106079,1.17627 -0.844004,0.28003 -1.829965,0.42005 -2.957886,0.42004 l -2.411865,0 0,6.10767 -3.227783,0 0,-17.35181 z"
             id="path3815"
             inkscape:connector-curvature="0" />
          <path
             d="m 96.724556,148.27156 c 0.912102,1e-5 1.742179,0.14796 2.490234,0.44385 0.748037,0.29591 1.38805,0.71595 1.92004,1.26013 0.53197,0.5442 0.94189,1.20826 1.22974,1.99219 0.28783,0.78394 0.43175,1.65979 0.43176,2.62756 -1e-5,0.97608 -0.14393,1.85608 -0.43176,2.64002 -0.28785,0.78393 -0.69777,1.4519 -1.22974,2.0039 -0.53199,0.552 -1.172003,0.97608 -1.92004,1.27222 -0.748055,0.29614 -1.578132,0.44421 -2.490234,0.44421 -0.919928,0 -1.755865,-0.14807 -2.507813,-0.44421 -0.751956,-0.29614 -1.393923,-0.72022 -1.925903,-1.27222 -0.531984,-0.552 -0.943971,-1.21997 -1.235962,-2.0039 -0.291993,-0.78394 -0.437989,-1.66394 -0.437988,-2.64002 -10e-7,-0.96777 0.145995,-1.84362 0.437988,-2.62756 0.291991,-0.78393 0.703978,-1.44799 1.235962,-1.99219 0.53198,-0.54418 1.173947,-0.96422 1.925903,-1.26013 0.751948,-0.29589 1.587885,-0.44384 2.507813,-0.44385 z m 0,10.40405 c 1.023918,1e-5 1.781974,-0.34399 2.27417,-1.03198 0.492178,-0.68798 0.738271,-1.69604 0.738281,-3.02417 -1e-5,-1.32812 -0.246103,-2.3402 -0.738281,-3.03625 -0.492196,-0.69604 -1.250252,-1.04406 -2.27417,-1.04407 -1.040045,1e-5 -1.810064,0.35011 -2.310059,1.05029 -0.500004,0.70021 -0.750003,1.71021 -0.75,3.03003 -3e-6,1.31983 0.249996,2.32581 0.75,3.01795 0.499995,0.69214 1.270014,1.03821 2.310059,1.0382 z"
             id="path3817"
             inkscape:connector-curvature="0" />
          <path
             d="m 105.05805,160.77547 0,-12.31201 1.81201,0 c 0.38379,1e-5 0.63574,0.17994 0.75586,0.53979 l 0.1919,0.91187 c 0.2163,-0.23974 0.44238,-0.45959 0.67822,-0.65955 0.23584,-0.19994 0.48779,-0.37194 0.75586,-0.51599 0.26806,-0.14403 0.55602,-0.25805 0.86389,-0.34204 0.30786,-0.084 0.64587,-0.12597 1.01404,-0.12598 0.77587,1e-5 1.41381,0.20997 1.91382,0.62988 0.49999,0.41994 0.87401,0.97804 1.12207,1.67432 0.19237,-0.40819 0.43248,-0.75829 0.72033,-1.05029 0.28784,-0.29198 0.60375,-0.53002 0.94776,-0.71411 0.34398,-0.18407 0.70995,-0.32006 1.0979,-0.40796 0.38793,-0.0879 0.77794,-0.13183 1.17004,-0.13184 0.68016,1e-5 1.28429,0.10402 1.81238,0.31201 0.52806,0.20802 0.97203,0.51198 1.33191,0.91187 0.35985,0.39991 0.63377,0.88795 0.82178,1.46411 0.18797,0.57618 0.28196,1.23609 0.28198,1.97974 l 0,7.83618 -2.96411,0 0,-7.83618 c -2e-5,-0.78369 -0.17201,-1.37353 -0.51599,-1.76954 -0.34401,-0.39598 -0.84804,-0.59398 -1.51209,-0.59399 -0.30372,1e-5 -0.58558,0.052 -0.84558,0.15601 -0.26002,0.10401 -0.48805,0.25391 -0.68408,0.4497 -0.19606,0.19581 -0.35011,0.44178 -0.46216,0.73792 -0.11207,0.29615 -0.1681,0.63611 -0.16809,1.0199 l 0,7.83618 -2.97583,0 0,-7.83618 c -10e-6,-0.82373 -0.16602,-1.42358 -0.49805,-1.79957 -0.33204,-0.37596 -0.81787,-0.56395 -1.45752,-0.56396 -0.43213,1e-5 -0.83423,0.10597 -1.20629,0.31787 -0.37208,0.21192 -0.71803,0.50196 -1.03785,0.87012 l 0,9.01172 z"
             id="path3819"
             inkscape:connector-curvature="0" />
          <path
             d="m 128.2392,148.46346 0,12.31201 -2.97583,0 0,-12.31201 z m 0.40796,-3.58814 c 0,0.25588 -0.052,0.49587 -0.156,0.71997 -0.10401,0.22414 -0.24195,0.42018 -0.41382,0.58814 -0.17188,0.16798 -0.37391,0.30201 -0.60608,0.4021 -0.23218,0.10011 -0.48011,0.15016 -0.74377,0.15014 -0.25635,2e-5 -0.49842,-0.05 -0.7262,-0.15014 -0.22779,-0.10009 -0.42578,-0.23412 -0.59399,-0.4021 -0.16822,-0.16796 -0.30225,-0.364 -0.4021,-0.58814 -0.0999,-0.2241 -0.14979,-0.46409 -0.14978,-0.71997 -10e-6,-0.26366 0.0499,-0.51158 0.14978,-0.74377 0.0999,-0.23216 0.23388,-0.43224 0.4021,-0.60022 0.16821,-0.16796 0.3662,-0.30187 0.59399,-0.40174 0.22778,-0.0998 0.46985,-0.14976 0.7262,-0.14978 0.26366,2e-5 0.51159,0.05 0.74377,0.14978 0.23217,0.0999 0.4342,0.23378 0.60608,0.40174 0.17187,0.16798 0.30981,0.36806 0.41382,0.60022 0.104,0.23219 0.156,0.48011 0.156,0.74377 z"
             id="path3821"
             inkscape:connector-curvature="0" />
          <path
             d="m 138.98896,151.60774 c -0.33595,-0.40819 -0.70191,-0.69628 -1.0979,-0.86426 -0.396,-0.16795 -0.82203,-0.25194 -1.27808,-0.25195 -0.44776,10e-6 -0.85169,0.084 -1.21179,0.25195 -0.36011,0.16798 -0.66822,0.42201 -0.92431,0.76209 -0.25611,0.3401 -0.45216,0.7721 -0.58814,1.29602 -0.13599,0.52393 -0.20398,1.14185 -0.20398,1.85376 0,0.72022 0.0581,1.33033 0.17432,1.83032 0.1162,0.50001 0.28222,0.90796 0.49804,1.22388 0.21582,0.31592 0.47974,0.54382 0.79175,0.68371 0.31201,0.1399 0.66015,0.20985 1.04444,0.20984 0.61571,10e-6 1.13964,-0.12792 1.57177,-0.38379 0.43212,-0.25585 0.84008,-0.61987 1.22388,-1.09204 z m 2.96411,-8.66455 0,17.83228 -1.81201,0 c -0.3921,0 -0.64015,-0.17993 -0.74414,-0.5398 l -0.25195,-1.18799 c -0.49611,0.56788 -1.06605,1.02784 -1.70984,1.37989 -0.64381,0.35205 -1.39393,0.52807 -2.25037,0.52807 -0.67188,0 -1.28784,-0.14001 -1.8479,-0.42004 -0.56006,-0.28003 -1.04199,-0.68604 -1.4458,-1.21802 -0.40381,-0.53198 -0.71582,-1.18994 -0.93604,-1.97388 -0.22021,-0.78393 -0.33032,-1.68004 -0.33032,-2.68835 0,-0.9121 0.12402,-1.76012 0.37207,-2.54407 0.24805,-0.78392 0.60413,-1.46385 1.06824,-2.03979 0.46411,-0.57592 1.02014,-1.02587 1.66809,-1.34986 0.64795,-0.32396 1.37597,-0.48595 2.18408,-0.48596 0.68798,1e-5 1.276,0.10792 1.76404,0.32373 0.48803,0.21583 0.92394,0.50783 1.30774,0.87598 l 0,-6.49219 z"
             id="path3823"
             inkscape:connector-curvature="0" />
          <path
             d="m 150.34956,148.27156 c 0.9121,1e-5 1.74217,0.14796 2.49023,0.44385 0.74804,0.29591 1.38805,0.71595 1.92004,1.26013 0.53197,0.5442 0.94189,1.20826 1.22974,1.99219 0.28783,0.78394 0.43175,1.65979 0.43176,2.62756 -1e-5,0.97608 -0.14393,1.85608 -0.43176,2.64002 -0.28785,0.78393 -0.69777,1.4519 -1.22974,2.0039 -0.53199,0.552 -1.172,0.97608 -1.92004,1.27222 -0.74806,0.29614 -1.57813,0.44421 -2.49023,0.44421 -0.91993,0 -1.75587,-0.14807 -2.50782,-0.44421 -0.75195,-0.29614 -1.39392,-0.72022 -1.9259,-1.27222 -0.53198,-0.552 -0.94397,-1.21997 -1.23596,-2.0039 -0.29199,-0.78394 -0.43799,-1.66394 -0.43799,-2.64002 0,-0.96777 0.146,-1.84362 0.43799,-2.62756 0.29199,-0.78393 0.70398,-1.44799 1.23596,-1.99219 0.53198,-0.54418 1.17395,-0.96422 1.9259,-1.26013 0.75195,-0.29589 1.58789,-0.44384 2.50782,-0.44385 z m 0,10.40405 c 1.02391,1e-5 1.78197,-0.34399 2.27417,-1.03198 0.49217,-0.68798 0.73827,-1.69604 0.73828,-3.02417 -1e-5,-1.32812 -0.24611,-2.3402 -0.73828,-3.03625 -0.4922,-0.69604 -1.25026,-1.04406 -2.27417,-1.04407 -1.04005,1e-5 -1.81007,0.35011 -2.31006,1.05029 -0.50001,0.70021 -0.75001,1.71021 -0.75,3.03003 -1e-5,1.31983 0.24999,2.32581 0.75,3.01795 0.49999,0.69214 1.27001,1.03821 2.31006,1.0382 z"
             id="path3825"
             inkscape:connector-curvature="0" />
          <path
             d="m 161.47871,150.5992 c 0.38427,-0.73583 0.84032,-1.31371 1.36816,-1.73365 0.52783,-0.4199 1.15185,-0.62987 1.87207,-0.62988 0.56786,1e-5 1.02392,0.12404 1.36816,0.37207 l -0.19189,2.21997 c -0.04,0.14406 -0.0982,0.24598 -0.17432,0.30579 -0.0762,0.0598 -0.17823,0.0897 -0.30615,0.0897 -0.11964,1e-5 -0.29749,-0.02 -0.53357,-0.0601 -0.23609,-0.04 -0.46619,-0.0601 -0.69031,-0.0601 -0.32813,1e-5 -0.62012,0.0481 -0.87597,0.14429 -0.25587,0.0962 -0.48585,0.23426 -0.68994,0.41419 -0.20411,0.17994 -0.38416,0.39795 -0.54016,0.65405 -0.15602,0.25611 -0.30189,0.54798 -0.43763,0.87561 l 0,7.58423 -2.96411,0 0,-12.31201 1.74024,0 c 0.3037,1e-5 0.51562,0.054 0.63574,0.16186 0.12011,0.10792 0.20019,0.30201 0.24023,0.58228 z"
             id="path3827"
             inkscape:connector-curvature="0" />
          <path
             d="m 178.82026,148.46346 -6.70825,15.6958 c -0.0879,0.208 -0.20191,0.36608 -0.34204,0.47424 -0.14015,0.10815 -0.35401,0.16223 -0.64161,0.16223 l -2.20825,0 2.3042,-4.94458 -4.98047,-11.38769 2.6045,0 c 0.23193,1e-5 0.41381,0.056 0.54565,0.16809 0.13183,0.11207 0.22998,0.24012 0.29443,0.38415 l 2.61548,6.38379 c 0.0879,0.21583 0.16186,0.43177 0.22193,0.64783 0.06,0.21607 0.11815,0.43616 0.17431,0.66028 0.0718,-0.22412 0.14367,-0.44617 0.2157,-0.66614 0.072,-0.21997 0.15197,-0.43786 0.23987,-0.65369 l 2.47265,-6.37207 c 0.064,-0.16014 0.16992,-0.29222 0.31788,-0.39624 0.14793,-0.10399 0.31395,-0.15599 0.49804,-0.156 z"
             id="path3829"
             inkscape:connector-curvature="0" />
        </g>
      </g>
      <g
         id="g3840">
        <rect
           ry="8.485281"
           y="476.08563"
           x="31.140503"
           height="69.280998"
           width="437.71899"
           id="rect3786"
           style="fill:#ffffff;fill-opacity:1;stroke:none" />
        <g
           transform="translate(-64.343869,331.2448)"
           style="font-size:24px;font-style:normal;font-variant:normal;font-weight:bold;font-stretch:normal;text-align:start;line-height:125%;letter-spacing:0px;word-spacing:0px;writing-mode:lr-tb;text-anchor:start;fill:#1a1a1a;fill-opacity:1;stroke:none;font-family:Lato;-inkscape-font-specification:Lato Bold"
           id="text3778">
          <path
             d="m 135.15236,177.55505 c -2e-5,1.27198 -0.20998,2.44996 -0.62988,3.53394 -0.41994,1.08399 -1.01394,2.0221 -1.78199,2.81433 -0.76808,0.79224 -1.69203,1.41028 -2.77185,1.85413 -1.07984,0.44384 -2.27992,0.66577 -3.60022,0.66577 -1.31202,0 -2.50794,-0.22193 -3.58777,-0.66577 -1.07983,-0.44385 -2.00574,-1.06189 -2.77771,-1.85413 -0.77197,-0.79223 -1.36999,-1.73034 -1.79406,-2.81433 -0.42408,-1.08398 -0.63611,-2.26196 -0.63611,-3.53394 0,-1.27196 0.21203,-2.44994 0.63611,-3.53393 0.42407,-1.08397 1.02209,-2.02196 1.79406,-2.81397 0.77197,-0.79197 1.69788,-1.40989 2.77771,-1.85376 1.07983,-0.44383 2.27575,-0.66575 3.58777,-0.66577 0.88036,2e-5 1.70849,0.10195 2.48438,0.30579 0.77586,0.20387 1.48778,0.49184 2.13574,0.86389 0.64793,0.37209 1.22997,0.82411 1.74609,1.35608 0.5161,0.532 0.95409,1.12599 1.31397,1.78198 0.35984,0.65602 0.63377,1.36806 0.82178,2.13611 0.18797,0.76808 0.28196,1.57594 0.28198,2.42358 z m -3.29956,0 c -2e-5,-0.95165 -0.12807,-1.80553 -0.38416,-2.56164 -0.25611,-0.75609 -0.62013,-1.39818 -1.09204,-1.92627 -0.47193,-0.52806 -1.04591,-0.93199 -1.72192,-1.21179 -0.67604,-0.27977 -1.43812,-0.41967 -2.28626,-0.41968 -0.84766,1e-5 -1.6095,0.13991 -2.28552,0.41968 -0.67603,0.2798 -1.25208,0.68373 -1.72815,1.21179 -0.47608,0.52809 -0.84217,1.17018 -1.09827,1.92627 -0.2561,0.75611 -0.38415,1.60999 -0.38415,2.56164 0,0.95216 0.12805,1.80628 0.38415,2.56238 0.2561,0.75611 0.62219,1.39612 1.09827,1.92005 0.47607,0.52393 1.05212,0.9259 1.72815,1.20593 0.67602,0.28003 1.43786,0.42004 2.28552,0.42004 0.84814,0 1.61022,-0.14001 2.28626,-0.42004 0.67601,-0.28003 1.24999,-0.682 1.72192,-1.20593 0.47191,-0.52393 0.83593,-1.16394 1.09204,-1.92005 0.25609,-0.7561 0.38414,-1.61022 0.38416,-2.56238 z"
             id="path3802"
             inkscape:connector-curvature="0" />
          <path
             d="m 142.04298,179.77502 c 0.36816,10e-6 0.68823,-0.0499 0.96021,-0.14978 0.27196,-0.0998 0.49792,-0.23778 0.67786,-0.41381 0.17992,-0.17602 0.31591,-0.38806 0.40795,-0.63611 0.092,-0.24804 0.13806,-0.52001 0.13807,-0.81592 -1e-5,-0.6079 -0.18202,-1.08983 -0.54602,-1.4458 -0.36403,-0.35595 -0.91005,-0.53393 -1.63807,-0.53394 -0.72803,1e-5 -1.27405,0.17799 -1.63806,0.53394 -0.36402,0.35597 -0.54602,0.8379 -0.54602,1.4458 0,0.28809 0.046,0.55616 0.13806,0.8042 0.092,0.24805 0.22803,0.46204 0.40796,0.64197 0.17993,0.17993 0.40796,0.31983 0.68408,0.41967 0.27612,0.0999 0.59412,0.14979 0.95398,0.14978 z m 3.3479,7.00855 c 0,-0.24024 -0.072,-0.43628 -0.21606,-0.58814 -0.14405,-0.15185 -0.3401,-0.26989 -0.58813,-0.35412 -0.24806,-0.0842 -0.5381,-0.14624 -0.87012,-0.18604 -0.33204,-0.0398 -0.68397,-0.0697 -1.05579,-0.0897 -0.37183,-0.02 -0.75574,-0.0381 -1.15173,-0.0542 -0.396,-0.0161 -0.78199,-0.0481 -1.15796,-0.0959 -0.32813,0.18408 -0.59424,0.40014 -0.79834,0.64819 -0.20411,0.24805 -0.30616,0.53589 -0.30615,0.86352 -1e-5,0.21631 0.0541,0.41846 0.16223,0.60645 0.10815,0.18799 0.28015,0.34997 0.51599,0.48596 0.23584,0.13599 0.54174,0.24194 0.91772,0.31787 0.37598,0.0759 0.83618,0.11389 1.38062,0.11389 0.55175,0 1.0277,-0.042 1.42786,-0.12597 0.40013,-0.084 0.73009,-0.19996 0.98986,-0.3479 0.25976,-0.14795 0.4497,-0.32398 0.56983,-0.52808 0.12011,-0.2041 0.18017,-0.42603 0.18017,-0.66577 z m 2.95166,-12.44458 0,1.10449 c -1e-5,0.35206 -0.21192,0.56813 -0.63574,0.64819 l -1.10376,0.20362 c 0.16796,0.42384 0.25194,0.88795 0.25196,1.39233 -2e-5,0.60792 -0.12209,1.15785 -0.36622,1.64978 -0.24415,0.49195 -0.58216,0.90992 -1.01403,1.25391 -0.4319,0.344 -0.94191,0.60999 -1.53003,0.79797 -0.58814,0.188 -1.22206,0.28199 -1.90174,0.28198 -0.24024,1e-5 -0.47229,-0.0119 -0.69616,-0.0359 -0.22388,-0.0239 -0.44398,-0.0559 -0.66028,-0.0959 -0.38379,0.23194 -0.57569,0.49195 -0.57568,0.78003 -1e-5,0.24805 0.114,0.43006 0.34204,0.54602 0.22802,0.11597 0.53002,0.19788 0.906,0.24573 0.37597,0.0479 0.80395,0.0779 1.28394,0.0901 0.47997,0.0122 0.97191,0.0382 1.47583,0.078 0.5039,0.0398 0.99596,0.10974 1.47619,0.20984 0.48022,0.1001 0.90832,0.25818 1.28431,0.47424 0.37596,0.21607 0.67796,0.51013 0.906,0.8822 0.22802,0.37207 0.34203,0.8501 0.34204,1.43408 -1e-5,0.54395 -0.13404,1.0719 -0.4021,1.58387 -0.26807,0.51196 -0.65614,0.96789 -1.16418,1.36779 -0.50807,0.3999 -1.13209,0.72192 -1.87207,0.96607 -0.74,0.24413 -1.58192,0.3662 -2.52576,0.36621 -0.92823,-1e-5 -1.73633,-0.0901 -2.42432,-0.27027 -0.68799,-0.18017 -1.26001,-0.42016 -1.71606,-0.71997 -0.45606,-0.2998 -0.79602,-0.64575 -1.0199,-1.03784 -0.22387,-0.39209 -0.33581,-0.80005 -0.33581,-1.22387 0,-0.57618 0.17395,-1.05823 0.52185,-1.44617 0.3479,-0.38794 0.8258,-0.69788 1.43371,-0.92981 -0.32764,-0.16846 -0.58752,-0.39258 -0.77966,-0.67236 -0.19214,-0.27979 -0.28821,-0.64771 -0.28821,-1.10376 0,-0.18408 0.0341,-0.37415 0.10218,-0.57019 0.0681,-0.19605 0.16808,-0.39002 0.29992,-0.58191 0.13184,-0.19189 0.29785,-0.3739 0.49805,-0.54602 0.20019,-0.17212 0.43628,-0.32605 0.70825,-0.4618 -0.62402,-0.33642 -1.11401,-0.78454 -1.46997,-1.34436 -0.35596,-0.5598 -0.53394,-1.21569 -0.53394,-1.96765 0,-0.60839 0.12195,-1.15856 0.36585,-1.65051 0.24389,-0.49193 0.58386,-0.91185 1.0199,-1.25977 0.43603,-0.34788 0.95202,-0.61388 1.54797,-0.79797 0.59594,-0.18407 1.24597,-0.27611 1.95007,-0.27612 0.52783,1e-5 1.0238,0.054 1.48792,0.16186 0.4641,0.10792 0.88805,0.26588 1.27185,0.47388 z"
             id="path3804"
             inkscape:connector-curvature="0" />
          <path
             d="m 155.64699,173.72742 c 0.9121,1e-5 1.74218,0.14796 2.49023,0.44384 0.74804,0.29591 1.38805,0.71596 1.92005,1.26014 0.53197,0.5442 0.94188,1.20826 1.22973,1.99218 0.28783,0.78395 0.43175,1.6598 0.43177,2.62757 -2e-5,0.97608 -0.14394,1.85608 -0.43177,2.64001 -0.28785,0.78394 -0.69776,1.45191 -1.22973,2.00391 -0.532,0.552 -1.17201,0.97607 -1.92005,1.27222 -0.74805,0.29614 -1.57813,0.44421 -2.49023,0.44421 -0.91993,0 -1.75587,-0.14807 -2.50781,-0.44421 -0.75196,-0.29615 -1.39393,-0.72022 -1.92591,-1.27222 -0.53198,-0.552 -0.94397,-1.21997 -1.23596,-2.00391 -0.29199,-0.78393 -0.43799,-1.66393 -0.43799,-2.64001 0,-0.96777 0.146,-1.84362 0.43799,-2.62757 0.29199,-0.78392 0.70398,-1.44798 1.23596,-1.99218 0.53198,-0.54418 1.17395,-0.96423 1.92591,-1.26014 0.75194,-0.29588 1.58788,-0.44383 2.50781,-0.44384 z m 0,10.40405 c 1.02392,0 1.78197,-0.34399 2.27417,-1.03198 0.49218,-0.68799 0.73827,-1.69604 0.73828,-3.02417 -1e-5,-1.32812 -0.2461,-2.3402 -0.73828,-3.03626 -0.4922,-0.69603 -1.25025,-1.04405 -2.27417,-1.04406 -1.04005,1e-5 -1.81007,0.3501 -2.31006,1.05029 -0.5,0.7002 -0.75,1.71021 -0.75,3.03003 0,1.31983 0.25,2.32581 0.75,3.01794 0.49999,0.69214 1.27001,1.03821 2.31006,1.03821 z m 4.14917,-15.44385 -2.96338,3.13184 c -0.15235,0.15968 -0.29847,0.26954 -0.43836,0.32959 -0.1399,0.0601 -0.3219,0.0901 -0.54602,0.0901 l -1.77612,0 1.70435,-2.91578 c 0.12011,-0.20799 0.26012,-0.36595 0.42004,-0.47387 0.15991,-0.1079 0.39977,-0.16185 0.71961,-0.16187 z"
             id="path3806"
             inkscape:connector-curvature="0" />
          <path
             d="m 166.77614,176.05505 c 0.38427,-0.73583 0.84033,-1.31371 1.36816,-1.73364 0.52783,-0.41991 1.15185,-0.62987 1.87207,-0.62988 0.56787,1e-5 1.02392,0.12403 1.36817,0.37207 l -0.1919,2.21997 c -0.0401,0.14405 -0.0982,0.24598 -0.17431,0.30579 -0.0762,0.0598 -0.17824,0.0897 -0.30616,0.0897 -0.11963,1e-5 -0.29749,-0.02 -0.53357,-0.0601 -0.23609,-0.04 -0.46619,-0.0601 -0.6903,-0.0601 -0.32814,1e-5 -0.62013,0.0481 -0.87598,0.14429 -0.25587,0.0962 -0.48585,0.23426 -0.68994,0.41418 -0.20411,0.17994 -0.38416,0.39796 -0.54016,0.65405 -0.15601,0.25612 -0.30189,0.54799 -0.43762,0.87561 l 0,7.58423 -2.96412,0 0,-12.31201 1.74024,0 c 0.30371,1e-5 0.51562,0.054 0.63574,0.16187 0.12011,0.10792 0.20019,0.30201 0.24023,0.58227 z"
             id="path3808"
             inkscape:connector-curvature="0" />
          <path
             d="m 175.89772,168.39905 0,10.21216 0.55151,0 c 0.20019,0 0.35828,-0.026 0.47425,-0.078 0.11596,-0.052 0.234,-0.15807 0.35412,-0.31823 l 3.06006,-3.7793 c 0.12792,-0.16845 0.26989,-0.29662 0.42591,-0.38452 0.15599,-0.0879 0.35802,-0.13183 0.60607,-0.13184 l 2.71216,0 -3.82837,4.57178 c -0.27198,0.36036 -0.56788,0.63648 -0.88769,0.82837 0.16796,0.12012 0.31786,0.26014 0.4497,0.42004 0.13183,0.15992 0.25781,0.33192 0.37793,0.51599 l 4.10376,5.97583 -2.67553,0 c -0.23195,0 -0.4319,-0.038 -0.59986,-0.11389 -0.16797,-0.0759 -0.30811,-0.21399 -0.42041,-0.41418 l -3.14355,-4.66773 c -0.11231,-0.18407 -0.2284,-0.30407 -0.34827,-0.35998 -0.11988,-0.0559 -0.29993,-0.0839 -0.54016,-0.0839 l -0.67163,0 0,5.63965 -2.96411,0 0,-17.83227 z"
             id="path3810"
             inkscape:connector-curvature="0" />
          <path
             d="m 188.84914,173.91931 0,12.31201 -2.97583,0 0,-12.31201 z m 0.40796,-3.58813 c -1e-5,0.25587 -0.052,0.49586 -0.15601,0.71997 -0.10401,0.22413 -0.24195,0.42018 -0.41382,0.58813 -0.17188,0.16799 -0.3739,0.30202 -0.60608,0.4021 -0.23218,0.10011 -0.4801,0.15016 -0.74377,0.15015 -0.25635,1e-5 -0.49842,-0.05 -0.7262,-0.15015 -0.22778,-0.10008 -0.42578,-0.23411 -0.59399,-0.4021 -0.16822,-0.16795 -0.30225,-0.364 -0.4021,-0.58813 -0.0999,-0.22411 -0.14978,-0.4641 -0.14978,-0.71997 0,-0.26366 0.0499,-0.51158 0.14978,-0.74378 0.0999,-0.23216 0.23388,-0.43223 0.4021,-0.60022 0.16821,-0.16795 0.36621,-0.30186 0.59399,-0.40173 0.22778,-0.0998 0.46985,-0.14976 0.7262,-0.14978 0.26367,2e-5 0.51159,0.0499 0.74377,0.14978 0.23218,0.0999 0.4342,0.23378 0.60608,0.40173 0.17187,0.16799 0.30981,0.36806 0.41382,0.60022 0.104,0.2322 0.156,0.48012 0.15601,0.74378 z"
             id="path3812"
             inkscape:connector-curvature="0" />
        </g>
      </g>
      <g
         id="g3831">
        <rect
           style="fill:#ffffff;fill-opacity:1;stroke:none"
           id="rect3788"
           width="437.71899"
           height="69.280998"
           x="31.140503"
           y="575.78772"
           ry="8.485281" />
        <g
           transform="translate(-178.51302,398.37474)"
           style="font-size:24px;font-style:normal;font-variant:normal;font-weight:bold;font-stretch:normal;text-align:start;line-height:125%;letter-spacing:0px;word-spacing:0px;writing-mode:lr-tb;text-anchor:start;fill:#1a1a1a;fill-opacity:1;stroke:none;font-family:Lato;-inkscape-font-specification:Lato Bold"
           id="text3782">
          <path
             d="m 250.55774,203.52774 0,17.35181 -2.84399,0 0,-11.20825 c -2e-5,-0.44775 0.0239,-0.93163 0.0718,-1.45166 l -5.24414,9.8518 c -0.24757,0.47217 -0.62745,0.70826 -1.13965,0.70825 l -0.4563,0 c -0.51172,1e-5 -0.89161,-0.23608 -1.13964,-0.70825 l -5.3042,-9.88769 c 0.0239,0.26368 0.0439,0.52357 0.0601,0.77966 0.0161,0.25611 0.0242,0.49208 0.0242,0.70789 l 0,11.20825 -2.844,0 0,-17.35181 2.43604,0 c 0.14403,2e-5 0.26806,0.004 0.37207,0.0121 0.104,0.008 0.19799,0.0281 0.28198,0.0601 0.084,0.032 0.15991,0.0839 0.22778,0.15564 0.0679,0.0718 0.13379,0.16775 0.19776,0.28785 l 5.19653,9.63647 c 0.13573,0.25587 0.26159,0.51978 0.37756,0.79175 0.11596,0.27198 0.23009,0.55201 0.34241,0.84009 0.11181,-0.2959 0.22777,-0.58191 0.3479,-0.85804 0.12011,-0.27611 0.24804,-0.5421 0.38379,-0.79797 l 5.12402,-9.6123 c 0.064,-0.1201 0.13194,-0.21605 0.20398,-0.28785 0.072,-0.0718 0.15001,-0.12364 0.23401,-0.15564 0.084,-0.032 0.17796,-0.052 0.28198,-0.0601 0.10399,-0.008 0.22801,-0.0121 0.37207,-0.0121 z"
             id="path3791"
             inkscape:connector-curvature="0" />
          <path
             d="m 256.9613,203.04727 0,17.83228 -2.96411,0 0,-17.83228 z"
             id="path3793"
             inkscape:connector-curvature="0" />
          <path
             d="m 267.84656,213.30777 c -1e-5,-0.38427 -0.0541,-0.74633 -0.16223,-1.08618 -0.10817,-0.33984 -0.27015,-0.63781 -0.48597,-0.89392 -0.21582,-0.2561 -0.48975,-0.45812 -0.82177,-0.60608 -0.33204,-0.14794 -0.71803,-0.22192 -1.15796,-0.22193 -0.85645,1e-5 -1.53065,0.24403 -2.02259,0.73206 -0.49194,0.48805 -0.80579,1.18006 -0.94152,2.07605 z m -5.6521,1.78784 c 0.0478,0.63184 0.15978,1.17774 0.33581,1.6377 0.17602,0.45996 0.40808,0.83997 0.69617,1.14001 0.28808,0.30005 0.63012,0.52405 1.02612,0.672 0.39599,0.14795 0.83398,0.22192 1.31397,0.22192 0.47997,0 0.89391,-0.0559 1.24182,-0.16772 0.34789,-0.11182 0.65185,-0.23572 0.91186,-0.37171 0.26001,-0.13598 0.48803,-0.26 0.68409,-0.37207 0.19603,-0.11205 0.38609,-0.16808 0.57019,-0.16809 0.24803,1e-5 0.43187,0.0921 0.55151,0.27613 l 0.85254,1.07959 c -0.32814,0.38427 -0.69618,0.70642 -1.10413,0.96643 -0.40797,0.26001 -0.83399,0.46801 -1.27807,0.62402 -0.4441,0.15601 -0.89613,0.26599 -1.35608,0.32996 -0.45997,0.064 -0.90601,0.0959 -1.33814,0.0959 -0.85596,0 -1.65186,-0.14209 -2.38769,-0.42627 -0.73584,-0.28418 -1.37586,-0.70422 -1.92005,-1.26013 -0.54419,-0.5559 -0.97229,-1.24389 -1.2843,-2.06396 -0.31201,-0.82007 -0.46802,-1.7699 -0.46801,-2.84949 -1e-5,-0.84033 0.13598,-1.63049 0.40795,-2.37048 0.27198,-0.73998 0.66199,-1.3839 1.17005,-1.93177 0.50805,-0.54784 1.12805,-0.9818 1.85998,-1.30188 0.73193,-0.32005 1.5581,-0.48009 2.47852,-0.4801 0.77587,1e-5 1.49181,0.12404 2.14783,0.37207 0.65599,0.24806 1.21996,0.61 1.69189,1.08582 0.47191,0.47584 0.84191,1.05982 1.10999,1.75195 0.26805,0.69215 0.40208,1.48206 0.4021,2.36975 -2e-5,0.44825 -0.048,0.75037 -0.14392,0.90637 -0.096,0.15601 -0.27992,0.23402 -0.55188,0.23401 z"
             id="path3795"
             inkscape:connector-curvature="0" />
          <path
             d="m 275.67542,203.04727 0,10.21216 0.55151,0 c 0.20019,1e-5 0.35827,-0.026 0.47424,-0.078 0.11596,-0.052 0.234,-0.15808 0.35413,-0.31824 l 3.06006,-3.7793 c 0.12792,-0.16844 0.26988,-0.29662 0.4259,-0.38452 0.156,-0.0879 0.35802,-0.13182 0.60608,-0.13183 l 2.71216,0 -3.82837,4.57177 c -0.27198,0.36036 -0.56788,0.63648 -0.8877,0.82837 0.16796,0.12013 0.31787,0.26014 0.44971,0.42005 0.13183,0.15991 0.2578,0.33191 0.37793,0.51599 l 4.10376,5.97583 -2.67554,0 c -0.23194,0 -0.43189,-0.038 -0.59985,-0.11389 -0.16798,-0.0759 -0.30812,-0.21399 -0.42041,-0.41419 l -3.14356,-4.66772 c -0.11231,-0.18408 -0.2284,-0.30408 -0.34826,-0.35999 -0.11988,-0.0559 -0.29994,-0.0839 -0.54016,-0.0839 l -0.67163,0 0,5.63965 -2.96412,0 0,-17.83228 z"
             id="path3797"
             inkscape:connector-curvature="0" />
          <path
             d="m 291.00281,208.37564 c 0.9121,1e-5 1.74218,0.14796 2.49023,0.44385 0.74804,0.29591 1.38805,0.71595 1.92005,1.26013 0.53197,0.5442 0.94188,1.20826 1.22973,1.99219 0.28783,0.78394 0.43175,1.6598 0.43176,2.62756 -1e-5,0.97608 -0.14393,1.85608 -0.43176,2.64002 -0.28785,0.78393 -0.69776,1.4519 -1.22973,2.0039 -0.532,0.55201 -1.17201,0.97608 -1.92005,1.27222 -0.74805,0.29614 -1.57813,0.44421 -2.49023,0.44421 -0.91993,0 -1.75587,-0.14807 -2.50781,-0.44421 -0.75196,-0.29614 -1.39393,-0.72021 -1.92591,-1.27222 -0.53198,-0.552 -0.94397,-1.21997 -1.23596,-2.0039 -0.29199,-0.78394 -0.43799,-1.66394 -0.43799,-2.64002 0,-0.96776 0.146,-1.84362 0.43799,-2.62756 0.29199,-0.78393 0.70398,-1.44799 1.23596,-1.99219 0.53198,-0.54418 1.17395,-0.96422 1.92591,-1.26013 0.75194,-0.29589 1.58788,-0.44384 2.50781,-0.44385 z m 0,10.40405 c 1.02392,1e-5 1.78197,-0.34399 2.27417,-1.03198 0.49218,-0.68798 0.73827,-1.69604 0.73828,-3.02417 -1e-5,-1.32812 -0.2461,-2.3402 -0.73828,-3.03625 -0.4922,-0.69604 -1.25025,-1.04406 -2.27417,-1.04407 -1.04005,10e-6 -1.81007,0.35011 -2.31006,1.05029 -0.50001,0.70021 -0.75,1.71021 -0.75,3.03003 0,1.31983 0.24999,2.32581 0.75,3.01795 0.49999,0.69214 1.27001,1.03821 2.31006,1.0382 z"
             id="path3799"
             inkscape:connector-curvature="0" />
        </g>
      </g>
    </g>
    <path
       style="fill:#ff0000;fill-opacity:1;stroke:none"
       d="m 369.4375,399.48376 -2.15625,2.15625 9.1875,9.1875 -9.1875,9.1875 2.15625,2.15625 9.1875,-9.1875 9.15625,9.1875 2.15625,-2.15625 -9.1875,-9.1875 9.1875,-9.1875 -2.15625,-2.15625 -9.15625,9.1875 -9.1875,-9.1875 z m 0,99.90625 -2.15625,2.15625 9.1875,9.1875 -9.1875,9.1875 2.15625,2.15625 9.1875,-9.1875 9.15625,9.1875 2.15625,-2.15625 -9.1875,-9.1875 9.1875,-9.1875 -2.15625,-2.15625 -9.15625,9.1875 -9.1875,-9.1875 z m 0,99.6875 -2.15625,2.15625 9.1875,9.1875 -9.1875,9.1875 2.15625,2.15625 9.1875,-9.1875 9.15625,9.1875 2.15625,-2.15625 -9.1875,-9.1875 9.1875,-9.1875 -2.15625,-2.15625 -9.15625,9.1875 -9.1875,-9.1875 z"
       id="rect3862"
       inkscape:connector-curvature="0" />
    <path
       style="fill:#cccccc;fill-opacity:1;stroke:none"
       d="m 404.50958,394.82751 0,32 1.5,0 0,-32 -1.5,0 z m 0,99.90625 0,32 1.5,0 0,-32 -1.5,0 z m 0,99.6875 0,32 1.5,0 0,-32 -1.5,0 z"
       id="rect3871"
       inkscape:connector-curvature="0" />
    <path
       id="path3889"
       d="m 431.92542,499.38238 c -6.26512,0 -11.34375,5.07863 -11.34375,11.34375 0,6.26512 5.07863,11.34375 11.34375,11.34375 6.26512,0 11.34375,-5.07863 11.34375,-11.34375 0,-6.26512 -5.07863,-11.34375 -11.34375,-11.34375 z m 0,1.21875 c 5.5817,0 10.125,4.5433 10.125,10.125 0,5.5817 -4.5433,10.09375 -10.125,10.09375 -5.5817,0 -10.09375,-4.51205 -10.09375,-10.09375 0,-5.5817 4.51205,-10.125 10.09375,-10.125 z m 6.40625,5 -8.75,8.75 -4.0625,-4.0625 -0.75,0.75 4.0625,4.0625 0.75,0.75 0.75,-0.75 8.75,-8.75 -0.75,-0.75 z"
       style="fill:#2a7fff;fill-opacity:1;stroke:none"
       inkscape:connector-curvature="0" />
    <path
       inkscape:connector-curvature="0"
       style="fill:#2a7fff;fill-opacity:1;stroke:none"
       d="m 431.92542,599.08447 c -6.26512,0 -11.34375,5.07863 -11.34375,11.34375 0,6.26512 5.07863,11.34375 11.34375,11.34375 6.26512,0 11.34375,-5.07863 11.34375,-11.34375 0,-6.26512 -5.07863,-11.34375 -11.34375,-11.34375 z m 0,1.21875 c 5.5817,0 10.125,4.5433 10.125,10.125 0,5.5817 -4.5433,10.09375 -10.125,10.09375 -5.5817,0 -10.09375,-4.51205 -10.09375,-10.09375 0,-5.5817 4.51205,-10.125 10.09375,-10.125 z m 6.40625,5 -8.75,8.75 -4.0625,-4.0625 -0.75,0.75 4.0625,4.0625 0.75,0.75 0.75,-0.75 8.75,-8.75 -0.75,-0.75 z"
       id="path3891" />
    <path
       id="path3893"
       d="m 431.92542,399.4768 c -6.26512,0 -11.34375,5.07863 -11.34375,11.34375 0,6.26512 5.07863,11.34375 11.34375,11.34375 6.26512,0 11.34375,-5.07863 11.34375,-11.34375 0,-6.26512 -5.07863,-11.34375 -11.34375,-11.34375 z m 0,1.21875 c 5.5817,0 10.125,4.5433 10.125,10.125 0,5.5817 -4.5433,10.09375 -10.125,10.09375 -5.5817,0 -10.09375,-4.51205 -10.09375,-10.09375 0,-5.5817 4.51205,-10.125 10.09375,-10.125 z m 6.40625,5 -8.75,8.75 -4.0625,-4.0625 -0.75,0.75 4.0625,4.0625 0.75,0.75 0.75,-0.75 8.75,-8.75 -0.75,-0.75 z"
       style="fill:#2a7fff;fill-opacity:1;stroke:none"
       inkscape:connector-curvature="0" />
  </g>
</svg>
